<svg width="545" height="185" viewBox="0 0 545 185" fill="none" xmlns="http://www.w3.org/2000/svg">
<path d="M543.946 145.462L543.946 146.137L544.622 146.137L544.622 145.462L543.946 145.462ZM4.03482 184.106L7.93455 177.351L0.135107 177.351L4.03482 184.106ZM268.812 145.462L268.812 146.137L268.812 145.462ZM4.03477 145.462L4.03482 144.786L3.35933 144.786L3.35933 145.462L4.03477 145.462ZM543.271 0.382812L543.271 145.462L544.622 145.462L544.622 0.382813L543.271 0.382812ZM543.946 144.786L268.812 144.786L268.812 146.137L543.946 146.137L543.946 144.786ZM268.812 144.786L4.03482 144.786L4.03478 146.137L268.812 146.137L268.812 144.786ZM3.35933 145.462L3.35937 178.027L4.71024 178.027L4.71027 145.462L3.35933 145.462Z" fill="#2E8CDF"/>
</svg>
