<svg width="29" height="29" viewBox="0 0 29 29" fill="none" xmlns="http://www.w3.org/2000/svg">
<path fill-rule="evenodd" clip-rule="evenodd" d="M14.4719 1.4248C7.34617 1.4248 1.56934 7.20164 1.56934 14.3274C1.56934 21.4531 7.34617 27.2299 14.4719 27.2299C21.5976 27.2299 27.3745 21.4531 27.3745 14.3274C27.3745 7.20164 21.5976 1.4248 14.4719 1.4248ZM18.8201 11.6378C19.0337 11.4166 19.152 11.1203 19.1493 10.8127C19.1466 10.5052 19.0233 10.211 18.8058 9.9935C18.5883 9.77602 18.2941 9.65266 17.9866 9.64999C17.679 9.64732 17.3827 9.76555 17.1615 9.97921L14.4719 12.6688L11.7823 9.97921C11.6741 9.86718 11.5447 9.77782 11.4016 9.71635C11.2585 9.65487 11.1045 9.62252 10.9488 9.62116C10.7931 9.61981 10.6386 9.64949 10.4945 9.70847C10.3503 9.76744 10.2193 9.85454 10.1092 9.96467C9.99907 10.0748 9.91197 10.2058 9.853 10.3499C9.79402 10.4941 9.76434 10.6485 9.76569 10.8043C9.76705 10.96 9.79941 11.1139 9.86088 11.257C9.92235 11.4001 10.0117 11.5296 10.1237 11.6378L12.8133 14.3274L10.1237 17.017C10.0117 17.1252 9.92235 17.2546 9.86088 17.3977C9.79941 17.5408 9.76705 17.6947 9.76569 17.8505C9.76434 18.0062 9.79402 18.1607 9.853 18.3048C9.91197 18.449 9.99907 18.58 10.1092 18.6901C10.2193 18.8002 10.3503 18.8873 10.4945 18.9463C10.6386 19.0053 10.7931 19.0349 10.9488 19.0336C11.1045 19.0322 11.2585 18.9999 11.4016 18.9384C11.5447 18.8769 11.6741 18.7876 11.7823 18.6755L14.4719 15.9859L17.1615 18.6755C17.3827 18.8892 17.679 19.0074 17.9866 19.0048C18.2941 19.0021 18.5883 18.8787 18.8058 18.6613C19.0233 18.4438 19.1466 18.1496 19.1493 17.842C19.152 17.5345 19.0337 17.2382 18.8201 17.017L16.1305 14.3274L18.8201 11.6378Z" fill="#D01B1B"/>
</svg>
