<svg width="26" height="27" viewBox="0 0 26 27" fill="none" xmlns="http://www.w3.org/2000/svg">
<path fill-rule="evenodd" clip-rule="evenodd" d="M12.8184 1.91797C6.41545 1.91797 1.22461 7.10881 1.22461 13.5117C1.22461 19.9146 6.41545 25.1055 12.8184 25.1055C19.2213 25.1055 24.4121 19.9146 24.4121 13.5117C24.4121 7.10881 19.2213 1.91797 12.8184 1.91797ZM17.8437 11.5513C17.9363 11.4455 18.0067 11.3223 18.0509 11.1889C18.0951 11.0555 18.1122 10.9146 18.1012 10.7745C18.0901 10.6344 18.0512 10.4979 17.9866 10.3731C17.922 10.2483 17.8332 10.1376 17.7252 10.0477C17.6172 9.95768 17.4924 9.89021 17.3579 9.84921C17.2235 9.80821 17.0822 9.79451 16.9424 9.80891C16.8027 9.82332 16.6671 9.86553 16.5439 9.93308C16.4207 10.0006 16.3122 10.0921 16.2248 10.2022L11.6927 15.6397L9.34761 13.2935C9.14883 13.1016 8.88259 12.9953 8.60624 12.9977C8.32989 13.0001 8.06554 13.111 7.87013 13.3064C7.67471 13.5018 7.56387 13.7662 7.56146 14.0425C7.55906 14.3189 7.6653 14.5851 7.85729 14.7839L11.0192 17.9458C11.1228 18.0493 11.2468 18.1301 11.3833 18.183C11.5198 18.2359 11.6658 18.2598 11.8121 18.2532C11.9584 18.2465 12.1016 18.2095 12.2328 18.1444C12.3639 18.0793 12.4801 17.9876 12.5738 17.8752L17.8437 11.5513Z" fill="#4ECB71"/>
</svg>
