<svg width="26" height="26" viewBox="0 0 26 26" fill="none" xmlns="http://www.w3.org/2000/svg">
<path fill-rule="evenodd" clip-rule="evenodd" d="M12.8184 1.13574C6.41545 1.13574 1.22461 6.45017 1.22461 13.0055C1.22461 19.5609 6.41545 24.8753 12.8184 24.8753C19.2213 24.8753 24.4121 19.5609 24.4121 13.0055C24.4121 6.45017 19.2213 1.13574 12.8184 1.13574ZM16.7255 10.5312C16.9174 10.3277 17.0237 10.0551 17.0213 9.7722C17.0189 9.48927 16.908 9.21863 16.7126 9.01856C16.5172 8.81849 16.2528 8.705 15.9765 8.70255C15.7001 8.70009 15.4339 8.80885 15.2351 9.00541L12.8184 11.4797L10.4016 9.00541C10.3044 8.90235 10.1881 8.82014 10.0595 8.76359C9.93088 8.70704 9.79258 8.67727 9.65263 8.67603C9.51269 8.67478 9.3739 8.70208 9.24437 8.75634C9.11484 8.8106 8.99716 8.89072 8.8982 8.99204C8.79924 9.09336 8.72098 9.21384 8.66798 9.34645C8.61499 9.47906 8.58832 9.62116 8.58954 9.76443C8.59075 9.90771 8.61983 10.0493 8.67507 10.181C8.73031 10.3126 8.8106 10.4317 8.91127 10.5312L11.328 13.0055L8.91127 15.4798C8.8106 15.5794 8.73031 15.6985 8.67507 15.8301C8.61983 15.9618 8.59075 16.1034 8.58954 16.2466C8.58832 16.3899 8.61499 16.532 8.66798 16.6646C8.72098 16.7972 8.79924 16.9177 8.8982 17.019C8.99716 17.1203 9.11484 17.2005 9.24437 17.2547C9.3739 17.309 9.51269 17.3363 9.65263 17.335C9.79258 17.3338 9.93088 17.304 10.0595 17.2475C10.1881 17.1909 10.3044 17.1087 10.4016 17.0057L12.8184 14.5313L15.2351 17.0057C15.4339 17.2022 15.7001 17.311 15.9765 17.3085C16.2528 17.3061 16.5172 17.1926 16.7126 16.9925C16.908 16.7924 17.0189 16.5218 17.0213 16.2389C17.0237 15.9559 16.9174 15.6834 16.7255 15.4798L14.3087 13.0055L16.7255 10.5312Z" fill="#F24E1E"/>
</svg>
