<svg width="26" height="26" viewBox="0 0 26 26" fill="none" xmlns="http://www.w3.org/2000/svg">
<path fill-rule="evenodd" clip-rule="evenodd" d="M12.8184 1.12256C6.41545 1.12256 1.22461 6.3134 1.22461 12.7163C1.22461 19.1192 6.41545 24.3101 12.8184 24.3101C19.2213 24.3101 24.4121 19.1192 24.4121 12.7163C24.4121 6.3134 19.2213 1.12256 12.8184 1.12256ZM17.8437 10.7559C17.9363 10.6501 18.0067 10.5269 18.0509 10.3935C18.0951 10.2601 18.1122 10.1192 18.1012 9.97911C18.0901 9.83901 18.0512 9.70253 17.9866 9.5777C17.922 9.45287 17.8332 9.34222 17.7252 9.25225C17.6172 9.16227 17.4924 9.0948 17.3579 9.0538C17.2235 9.0128 17.0822 8.9991 16.9424 9.0135C16.8027 9.02791 16.6671 9.07012 16.5439 9.13767C16.4207 9.20521 16.3122 9.29673 16.2248 9.40682L11.6927 14.8443L9.34761 12.4981C9.14883 12.3061 8.88259 12.1999 8.60624 12.2023C8.32989 12.2047 8.06554 12.3156 7.87013 12.511C7.67471 12.7064 7.56387 12.9707 7.56146 13.2471C7.55906 13.5234 7.6653 13.7897 7.85729 13.9885L11.0192 17.1504C11.1228 17.2539 11.2468 17.3347 11.3833 17.3876C11.5198 17.4405 11.6658 17.4644 11.8121 17.4578C11.9584 17.4511 12.1016 17.4141 12.2328 17.349C12.3639 17.2839 12.4801 17.1922 12.5738 17.0798L17.8437 10.7559Z" fill="#4ECB71"/>
</svg>
