<svg width="87" height="86" viewBox="0 0 87 86" fill="none" xmlns="http://www.w3.org/2000/svg">
<path d="M74.66 66.1465H17.1998V14.0314C17.1998 13.6639 16.8991 13.3633 16.5317 13.3633H11.8547C11.4872 13.3633 11.1865 13.6639 11.1865 14.0314V71.4917C11.1865 71.8591 11.4872 72.1598 11.8547 72.1598H74.66C75.0275 72.1598 75.3282 71.8591 75.3282 71.4917V66.8147C75.3282 66.4472 75.0275 66.1465 74.66 66.1465ZM26.036 53.2597C26.2949 53.5186 26.7125 53.5186 26.9797 53.2597L38.5302 41.7677L49.1871 52.4914C49.446 52.7503 49.872 52.7503 50.1309 52.4914L73.1317 29.4989C73.3906 29.24 73.3906 28.8141 73.1317 28.5552L69.8243 25.2479C69.6988 25.1235 69.5292 25.0538 69.3525 25.0538C69.1758 25.0538 69.0062 25.1235 68.8806 25.2479L49.6715 44.4486L39.0313 33.7416C38.9058 33.6173 38.7362 33.5475 38.5595 33.5475C38.3828 33.5475 38.2132 33.6173 38.0876 33.7416L22.737 49.0003C22.6127 49.1259 22.5429 49.2955 22.5429 49.4722C22.5429 49.6489 22.6127 49.8185 22.737 49.9441L26.036 53.2597Z" fill="#59C25E"/>
</svg>
