<svg width="10" height="278" viewBox="0 0 10 278" fill="none" xmlns="http://www.w3.org/2000/svg">
<path d="M5.15868 277.846L7.39756 273.968L2.91979 273.968L5.15868 277.846ZM4.77091 0.966309L4.7709 4.81186L5.54648 4.81186L5.54648 0.966309L4.77091 0.966309ZM4.7709 12.503L4.7709 20.194L5.54648 20.194L5.54648 12.503L4.7709 12.503ZM4.7709 27.8851L4.7709 35.5762L5.54648 35.5762L5.54648 27.8851L4.7709 27.8851ZM4.7709 43.2673L4.7709 50.9584L5.54648 50.9584L5.54648 43.2673L4.7709 43.2673ZM4.7709 58.6495L4.7709 66.3406L5.54647 66.3406L5.54648 58.6495L4.7709 58.6495ZM4.7709 74.0317L4.7709 81.7228L5.54647 81.7228L5.54647 74.0317L4.7709 74.0317ZM4.7709 89.4139L4.7709 97.105L5.54647 97.105L5.54647 89.4139L4.7709 89.4139ZM4.7709 104.796L4.7709 112.487L5.54647 112.487L5.54647 104.796L4.7709 104.796ZM4.7709 120.178L4.7709 127.869L5.54647 127.869L5.54647 120.178L4.7709 120.178ZM4.7709 135.56L4.7709 143.252L5.54647 143.252L5.54647 135.56L4.7709 135.56ZM4.7709 150.943L4.7709 158.634L5.54647 158.634L5.54647 150.943L4.7709 150.943ZM4.7709 166.325L4.7709 174.016L5.54647 174.016L5.54647 166.325L4.7709 166.325ZM4.7709 181.707L4.7709 189.398L5.54647 189.398L5.54647 181.707L4.7709 181.707ZM4.7709 197.089L4.7709 204.78L5.54647 204.78L5.54647 197.089L4.7709 197.089ZM4.7709 212.471L4.7709 220.163L5.54647 220.163L5.54647 212.471L4.7709 212.471ZM4.7709 227.854L4.77089 235.545L5.54647 235.545L5.54647 227.854L4.7709 227.854ZM4.77089 243.236L4.77089 250.927L5.54647 250.927L5.54647 243.236L4.77089 243.236ZM4.77089 258.618L4.77089 266.309L5.54647 266.309L5.54647 258.618L4.77089 258.618ZM4.77089 274L4.77089 274.356L5.54647 274.356L5.54647 274L4.77089 274ZM5.15868 277.846L9.63645 270.09L0.680909 270.09L5.15868 277.846ZM4.38312 0.966309L4.38312 4.81186L5.93426 4.81186L5.93426 0.966309L4.38312 0.966309ZM4.38312 12.503L4.38312 20.194L5.93426 20.194L5.93426 12.503L4.38312 12.503ZM4.38312 27.8851L4.38312 35.5762L5.93426 35.5762L5.93426 27.8851L4.38312 27.8851ZM4.38312 43.2673L4.38312 50.9584L5.93426 50.9584L5.93426 43.2673L4.38312 43.2673ZM4.38312 58.6495L4.38312 66.3406L5.93426 66.3406L5.93426 58.6495L4.38312 58.6495ZM4.38312 74.0317L4.38312 81.7228L5.93426 81.7228L5.93426 74.0317L4.38312 74.0317ZM4.38312 89.4139L4.38311 97.105L5.93426 97.105L5.93426 89.4139L4.38312 89.4139ZM4.38311 104.796L4.38311 112.487L5.93426 112.487L5.93426 104.796L4.38311 104.796ZM4.38311 120.178L4.38311 127.869L5.93426 127.869L5.93426 120.178L4.38311 120.178ZM4.38311 135.56L4.38311 143.252L5.93426 143.252L5.93426 135.56L4.38311 135.56ZM4.38311 150.943L4.38311 158.634L5.93426 158.634L5.93426 150.943L4.38311 150.943ZM4.38311 166.325L4.38311 174.016L5.93426 174.016L5.93426 166.325L4.38311 166.325ZM4.38311 181.707L4.38311 189.398L5.93426 189.398L5.93426 181.707L4.38311 181.707ZM4.38311 197.089L4.38311 204.78L5.93426 204.78L5.93426 197.089L4.38311 197.089ZM4.38311 212.471L4.38311 220.163L5.93425 220.163L5.93425 212.471L4.38311 212.471ZM4.38311 227.854L4.38311 235.545L5.93425 235.545L5.93425 227.854L4.38311 227.854ZM4.38311 243.236L4.38311 250.927L5.93425 250.927L5.93425 243.236L4.38311 243.236ZM4.38311 258.618L4.38311 266.309L5.93425 266.309L5.93425 258.618L4.38311 258.618Z" fill="#E1BA04"/>
</svg>
