<svg width="73" height="73" viewBox="0 0 73 73" fill="none" xmlns="http://www.w3.org/2000/svg">
<path d="M16.1999 38.4106V22.2378H10.1351C8.52664 22.2378 6.98403 22.8768 5.84666 24.0141C4.70928 25.1515 4.07031 26.6941 4.07031 28.3026V64.6915C4.07332 65.0669 4.18083 65.4341 4.38078 65.7519C4.58074 66.0697 4.86524 66.3255 5.20241 66.4907C5.52724 66.6384 5.88538 66.6976 6.24045 66.662C6.59553 66.6265 6.93487 66.4977 7.22402 66.2886L17.6353 58.6267H44.8057C45.5719 58.6493 46.3346 58.5144 47.0465 58.2303C47.7585 57.9463 48.4045 57.519 48.9446 56.9751C49.4848 56.4312 49.9075 55.7822 50.1866 55.0682C50.4657 54.3543 50.5952 53.5907 50.5672 52.8247V50.5403H28.3296C25.1126 50.5403 22.0274 49.2623 19.7526 46.9876C17.4779 44.7128 16.1999 41.6276 16.1999 38.4106V38.4106Z" fill="#75E97B"/>
<path d="M62.6977 8.08643H28.3304C26.722 8.08643 25.1793 8.7254 24.042 9.86277C22.9046 11.0001 22.2656 12.5428 22.2656 14.1512V38.4105C22.2656 40.019 22.9046 41.5616 24.042 42.699C25.1793 43.8363 26.722 44.4753 28.3304 44.4753H55.7232L65.3865 51.9755C65.6737 52.1879 66.0121 52.3203 66.3673 52.3594C66.7224 52.3985 67.0815 52.3427 67.4081 52.1978C67.7521 52.034 68.0428 51.7763 68.2467 51.4543C68.4505 51.1324 68.5593 50.7594 68.5604 50.3784V14.1512C68.5613 12.5772 67.9501 11.0644 66.8561 9.93269C65.7621 8.80095 64.2709 8.13889 62.6977 8.08643V8.08643Z" fill="#75E97B"/>
</svg>
