<svg width="52" height="52" viewBox="0 0 52 52" fill="none" xmlns="http://www.w3.org/2000/svg">
<path d="M25.9467 1.73828C12.5222 1.73828 1.63867 12.6218 1.63867 26.0464C1.63867 39.4709 12.5222 50.3544 25.9467 50.3544C39.3713 50.3544 50.2548 39.4709 50.2548 26.0464C50.2548 12.6218 39.3713 1.73828 25.9467 1.73828ZM29.9981 42.0492H21.8954V22.6027H29.9981V42.0492ZM25.9467 18.1462C24.8723 18.1462 23.8418 17.7194 23.082 16.9596C22.3222 16.1998 21.8954 15.1694 21.8954 14.0949C21.8954 13.0204 22.3222 11.9899 23.082 11.2302C23.8418 10.4704 24.8723 10.0435 25.9467 10.0435C27.0212 10.0435 28.0517 10.4704 28.8115 11.2302C29.5713 11.9899 29.9981 13.0204 29.9981 14.0949C29.9981 15.1694 29.5713 16.1998 28.8115 16.9596C28.0517 17.7194 27.0212 18.1462 25.9467 18.1462Z" fill="#FFD100"/>
</svg>
