<svg width="73" height="72" viewBox="0 0 73 72" fill="none" xmlns="http://www.w3.org/2000/svg">
<path d="M27.6573 3.60634C27.6573 1.76199 29.1467 0.265625 30.998 0.265625H42.1337C43.9851 0.265625 45.4745 1.76199 45.4745 3.60634C45.4745 5.45069 43.9851 6.94705 42.1337 6.94705H39.9066V11.6268C44.1799 12.2087 48.0913 13.8902 51.3625 16.3706L54.6753 13.0647L53.1024 11.4904C51.794 10.1848 51.794 8.07036 53.1024 6.76609C54.4109 5.46043 56.5266 5.46043 57.8212 6.76609L65.6997 14.6446C67.0081 15.9391 67.0081 18.0549 65.6997 19.3634C64.3912 20.6718 62.2754 20.6718 60.9809 19.3634L59.3941 17.7904L56.0951 21.1033C58.5728 24.3744 60.2571 28.2858 60.8417 32.5592H65.5187V30.332C65.5187 28.4807 67.0081 26.9913 68.8594 26.9913C70.7107 26.9913 72.2001 28.4807 72.2001 30.332V41.4677C72.2001 43.319 70.7107 44.8084 68.8594 44.8084C67.0081 44.8084 65.5187 43.319 65.5187 41.4677V39.2406H60.8417C60.2571 43.5139 58.5728 47.4253 56.0951 50.6964L59.3941 54.0093L60.9809 52.4364C62.2754 51.1279 64.3912 51.1279 65.6997 52.4364C67.0081 53.7448 67.0081 55.8606 65.6997 57.1552L57.8212 65.0337C56.5266 66.3421 54.4109 66.3421 53.1024 65.0337C51.794 63.7252 51.794 61.6094 53.1024 60.3149L54.6753 58.7281L51.3625 55.4291C48.0913 57.9068 44.1799 59.5911 39.9066 60.1757V64.8527H42.1337C43.9851 64.8527 45.4745 66.3421 45.4745 68.1934C45.4745 70.0447 43.9851 71.5341 42.1337 71.5341H30.998C29.1467 71.5341 27.6573 70.0447 27.6573 68.1934C27.6573 66.3421 29.1467 64.8527 30.998 64.8527H33.2252V60.1757C28.9519 59.5911 25.0404 57.9068 21.7693 55.4291L18.4565 58.742L20.0294 60.3149C21.3378 61.6094 21.3378 63.7252 20.0294 65.0337C18.7209 66.3421 16.6051 66.3421 15.3106 65.0337L7.43211 57.1552C6.12645 55.8606 6.12645 53.7448 7.43211 52.4364C8.73638 51.1279 10.8522 51.1279 12.1564 52.4364L13.7307 54.0093L17.0367 50.6964C14.5562 47.4253 12.8747 43.5139 12.2928 39.2406H7.61306V41.4677C7.61306 43.319 6.1167 44.8084 4.27235 44.8084C2.428 44.8084 0.931641 43.319 0.931641 41.4677V30.332C0.931641 28.4807 2.428 26.9913 4.27235 26.9913C6.1167 26.9913 7.61306 28.4807 7.61306 30.332V32.5592H12.2928C12.8747 28.2858 14.5562 24.3744 17.0367 21.1033L13.7307 17.7904L12.1564 19.3634C10.8508 20.6718 8.73638 20.6718 7.43211 19.3634C6.12645 18.0549 6.12645 15.9391 7.43211 14.6446L15.3106 6.76609C16.6051 5.46182 18.7209 5.46182 20.0294 6.76609C21.3378 8.07036 21.3378 10.1861 20.0294 11.4904L18.4565 13.0647L21.7693 16.3706C25.0404 13.8902 28.9519 12.2087 33.2252 11.6268V6.94705H30.998C29.1467 6.94705 27.6573 5.45208 27.6573 3.60634ZM27.6573 24.7642C23.9686 24.7642 20.9759 27.7569 20.9759 31.4456C20.9759 35.1343 23.9686 38.127 27.6573 38.127C31.346 38.127 34.3388 35.1343 34.3388 31.4456C34.3388 27.7569 31.346 24.7642 27.6573 24.7642ZM43.2473 45.922C45.0986 45.922 46.588 44.4326 46.588 42.5813C46.588 40.73 45.0986 39.2406 43.2473 39.2406C41.396 39.2406 39.9066 40.73 39.9066 42.5813C39.9066 44.4326 41.396 45.922 43.2473 45.922Z" fill="#4ECB71"/>
</svg>
