<svg width="28" height="28" viewBox="0 0 28 28" fill="none" xmlns="http://www.w3.org/2000/svg">
<path d="M24.6442 10.5264C25.4232 12.9196 25.3733 15.5054 24.5026 17.8667C23.6319 20.2281 21.9912 22.2273 19.8451 23.542C17.6989 24.8566 15.1725 25.41 12.6734 25.1128C10.1742 24.8157 7.84799 23.6854 6.06993 21.9042C4.29187 20.123 3.16564 17.7948 2.8729 15.2951C2.58017 12.7954 3.13798 10.27 4.45638 8.1262C5.77478 5.98239 7.77689 4.34517 10.1398 3.47864C12.5027 2.61211 15.0886 2.56679 17.4804 3.34998L16.0132 4.81578C15.932 4.89558 15.8592 4.98378 15.792 5.07478C13.8769 4.68824 11.8883 4.9283 10.1202 5.75945C8.35209 6.59059 6.89844 7.9687 5.97421 9.68996C5.04997 11.4112 4.70423 13.3842 4.98812 15.3172C5.272 17.2501 6.17044 19.0404 7.55055 20.4232C8.93067 21.8061 10.7192 22.708 12.6516 22.9957C14.584 23.2834 16.5577 22.9415 18.2807 22.0207C20.0038 21.0998 21.3847 19.6489 22.2194 17.8824C23.054 16.116 23.2979 14.1278 22.9152 12.212C23.011 12.144 23.1009 12.0682 23.184 11.9852L24.6428 10.5264H24.6442ZM20.8572 12.5998C21.1577 14.0742 20.9752 15.6062 20.3366 16.9687C19.698 18.3312 18.6373 19.4517 17.3119 20.164C15.9864 20.8763 14.4667 21.1426 12.978 20.9233C11.4893 20.7039 10.111 20.0108 9.04722 18.9465C7.98348 17.8822 7.291 16.5035 7.07246 15.0147C6.85391 13.5259 7.12092 12.0063 7.83391 10.6812C8.5469 9.3561 9.66791 8.29602 11.0307 7.65812C12.3936 7.02022 13.9257 6.83846 15.4 7.13978V9.30418C14.3551 8.99226 13.236 9.03778 12.2199 9.43354C11.2038 9.82931 10.3488 10.5527 9.79016 11.4892C9.23153 12.4257 9.00124 13.5217 9.13574 14.6038C9.27025 15.686 9.76187 16.6923 10.5328 17.4635C11.3037 18.2347 12.3098 18.7268 13.3918 18.8618C14.4739 18.9967 15.5701 18.7669 16.5068 18.2087C17.4435 17.6504 18.1673 16.7957 18.5635 15.7798C18.9596 14.7638 19.0056 13.6448 18.6942 12.5998H20.8572ZM13.9972 16.0998C14.3192 16.0999 14.637 16.026 14.9259 15.8838C15.2149 15.7415 15.4672 15.5347 15.6634 15.2793C15.8597 15.0239 15.9945 14.7269 16.0576 14.411C16.1207 14.0952 16.1103 13.7691 16.0272 13.458L18.242 11.2418L18.284 11.1998H21.7C21.792 11.1999 21.8831 11.182 21.9681 11.1469C22.0531 11.1118 22.1304 11.0603 22.1956 10.9954L24.9956 8.19538C25.0937 8.09748 25.1606 7.97264 25.1877 7.83668C25.2148 7.70073 25.201 7.55979 25.1479 7.43173C25.0948 7.30367 25.0049 7.19425 24.8895 7.11735C24.7742 7.04045 24.6386 6.99953 24.5 6.99978H21V3.49978C20.9999 3.36144 20.9589 3.22621 20.8821 3.11116C20.8053 2.99612 20.6961 2.90642 20.5683 2.85339C20.4405 2.80036 20.2999 2.78639 20.1642 2.81322C20.0285 2.84006 19.9037 2.90651 19.8058 3.00418L17.0058 5.80418C16.9406 5.86919 16.8888 5.94643 16.8535 6.03147C16.8182 6.11652 16.8 6.20769 16.8 6.29978V9.71578C16.7856 9.72939 16.7716 9.74339 16.758 9.75778L14.5432 11.9698C14.2318 11.8862 13.9053 11.8754 13.5891 11.9383C13.2728 12.0011 12.9753 12.1359 12.7195 12.3321C12.4636 12.5284 12.2564 12.7809 12.1138 13.0701C11.9712 13.3592 11.8971 13.6774 11.8972 13.9998C11.8972 14.5567 12.1184 15.0909 12.5122 15.4847C12.9061 15.8785 13.4402 16.0998 13.9972 16.0998Z" fill="#F24E1E"/>
</svg>
