<svg width="174" height="174" viewBox="0 0 174 174" fill="none" xmlns="http://www.w3.org/2000/svg">
<path d="M68.5475 65.25C72.9323 59.943 79.5704 56.55 87.0002 56.55C94.43 56.55 101.068 59.943 105.453 65.25C108.34 68.7501 110.172 72.9989 110.736 77.5008C111.299 82.0027 110.571 86.572 108.636 90.6758C106.701 94.7796 103.64 98.2487 99.808 100.678C95.9764 103.108 91.5329 104.398 86.9959 104.398C82.4588 104.398 78.0153 103.108 74.1837 100.678C70.352 98.2487 67.2902 94.7796 65.3554 90.6758C63.4206 86.572 62.6925 82.0027 63.2562 77.5008C63.8198 72.9989 65.652 68.7501 68.5388 65.25H68.5475ZM119.625 80.475C119.625 74.9766 118.268 69.7914 115.867 65.25H152.25C155.711 65.25 159.031 66.6249 161.478 69.0722C163.925 71.5196 165.3 74.8389 165.3 78.3V82.65C165.3 96.4569 154.808 110.594 136.46 115.571C134.574 112.184 131.818 109.362 128.475 107.398C125.133 105.434 121.327 104.399 117.45 104.4H109.185C112.483 101.349 115.113 97.6479 116.91 93.5303C118.706 89.4127 119.631 84.9675 119.625 80.475ZM117.45 113.1C119.165 113.095 120.864 113.43 122.45 114.084C124.035 114.738 125.475 115.699 126.688 116.912C127.901 118.125 128.862 119.565 129.516 121.151C130.17 122.736 130.505 124.435 130.5 126.15V130.5C130.5 147.648 114.318 165.3 87.0002 165.3C59.6822 165.3 43.5002 147.648 43.5002 130.5V126.15C43.4956 124.435 43.83 122.736 44.4842 121.151C45.1384 119.565 46.0995 118.125 47.3122 116.912C48.5249 115.699 49.9654 114.738 51.5508 114.084C53.1361 113.43 54.8352 113.095 56.5502 113.1H117.45ZM8.7002 82.65C8.7002 96.4569 19.1924 110.594 37.5407 115.571C39.4263 112.184 42.1828 109.362 45.525 107.398C48.8672 105.434 52.6736 104.399 56.5502 104.4H64.8152C61.5176 101.349 58.8876 97.6479 57.0908 93.5303C55.294 89.4127 54.3694 84.9675 54.3752 80.475C54.3752 74.9766 55.7324 69.7914 58.1423 65.25H21.7502C18.2891 65.25 14.9698 66.6249 12.5225 69.0722C10.0751 71.5196 8.7002 74.8389 8.7002 78.3V82.65ZM76.1252 32.625C76.1252 26.2796 73.6045 20.1942 69.1177 15.7074C64.6309 11.2206 58.5455 8.69995 52.2002 8.69995C45.8549 8.69995 39.7695 11.2206 35.2827 15.7074C30.7959 20.1942 28.2752 26.2796 28.2752 32.625C28.2752 38.9703 30.7959 45.0557 35.2827 49.5425C39.7695 54.0293 45.8549 56.55 52.2002 56.55C58.5455 56.55 64.6309 54.0293 69.1177 49.5425C73.6045 45.0557 76.1252 38.9703 76.1252 32.625V32.625ZM145.725 32.625C145.725 26.2796 143.205 20.1942 138.718 15.7074C134.231 11.2206 128.146 8.69995 121.8 8.69995C115.455 8.69995 109.369 11.2206 104.883 15.7074C100.396 20.1942 97.8752 26.2796 97.8752 32.625C97.8752 38.9703 100.396 45.0557 104.883 49.5425C109.369 54.0293 115.455 56.55 121.8 56.55C128.146 56.55 134.231 54.0293 138.718 49.5425C143.205 45.0557 145.725 38.9703 145.725 32.625V32.625Z" fill="#4ECB71"/>
</svg>
