<svg width="66" height="66" viewBox="0 0 66 66" fill="none" xmlns="http://www.w3.org/2000/svg">
<path d="M35.2455 33.0354C36.8685 33.0354 38.4251 33.6801 39.5727 34.8278C40.7204 35.9754 41.3651 37.532 41.3651 39.155L41.3611 42.2088C41.7813 49.7013 36.0104 53.4384 25.3071 53.4384C14.6405 53.4384 8.74316 49.7503 8.74316 42.3148V39.155C8.74316 37.532 9.38791 35.9754 10.5356 34.8278C11.6832 33.6801 13.2398 33.0354 14.8628 33.0354H35.2455V33.0354ZM51.5646 33.0354C53.1877 33.0354 54.7442 33.6801 55.8919 34.8278C57.0395 35.9754 57.6843 37.532 57.6843 39.155V41.3031C58.0515 48.0245 52.9517 51.3944 43.6315 51.3944C42.3667 51.3944 41.1775 51.3332 40.0657 51.2108C42.2566 49.1872 43.4275 46.4436 43.4234 42.9758L43.3969 42.0945L43.405 39.155C43.4062 37.9971 43.1602 36.8522 42.6835 35.7969C42.2069 34.7416 41.5105 33.8001 40.641 33.0354H51.5667H51.5646ZM25.0623 8.55664C27.7679 8.55664 30.3627 9.63144 32.2759 11.5446C34.189 13.4577 35.2638 16.0525 35.2638 18.7581C35.2638 21.4638 34.189 24.0586 32.2759 25.9717C30.3627 27.8849 27.7679 28.9597 25.0623 28.9597C22.3567 28.9597 19.7619 27.8849 17.8488 25.9717C15.9356 24.0586 14.8608 21.4638 14.8608 18.7581C14.8608 16.0525 15.9356 13.4577 17.8488 11.5446C19.7619 9.63144 22.3567 8.55664 25.0623 8.55664V8.55664ZM45.4612 12.6364C47.6253 12.6364 49.7007 13.4961 51.2309 15.0263C52.7612 16.5565 53.6208 18.6319 53.6208 20.796C53.6208 22.9601 52.7612 25.0355 51.2309 26.5657C49.7007 28.0959 47.6253 28.9556 45.4612 28.9556C43.2972 28.9556 41.2218 28.0959 39.6916 26.5657C38.1613 25.0355 37.3017 22.9601 37.3017 20.796C37.3017 18.6319 38.1613 16.5565 39.6916 15.0263C41.2218 13.4961 43.2972 12.6364 45.4612 12.6364Z" fill="#D99BFF"/>
</svg>
