<svg width="72" height="73" viewBox="0 0 72 73" fill="none" xmlns="http://www.w3.org/2000/svg">
<path d="M35.9912 6.4248C52.5559 6.4248 65.9833 19.8553 65.9833 36.417C65.9833 52.9786 52.5559 66.4091 35.9912 66.4091C19.4265 66.4091 5.99902 52.9786 5.99902 36.417C5.99902 19.8553 19.4265 6.4248 35.9912 6.4248ZM35.9912 11.4245C22.2098 11.4245 10.9987 22.6356 10.9987 36.417C10.9987 50.1984 22.2098 61.4094 35.9912 61.4094C49.7726 61.4094 60.9837 50.1984 60.9837 36.417C60.9837 22.6356 49.7726 11.4245 35.9912 11.4245ZM35.9912 46.9142C36.7866 46.9142 37.5495 47.2302 38.112 47.7927C38.6744 48.3551 38.9904 49.118 38.9904 49.9134C38.9904 50.7089 38.6744 51.4717 38.112 52.0342C37.5495 52.5967 36.7866 52.9127 35.9912 52.9127C35.1957 52.9127 34.4329 52.5967 33.8704 52.0342C33.308 51.4717 32.992 50.7089 32.992 49.9134C32.992 49.118 33.308 48.3551 33.8704 47.7927C34.4329 47.2302 35.1957 46.9142 35.9912 46.9142ZM35.9912 20.6711C38.1786 20.6711 40.2765 21.54 41.8233 23.0868C43.3701 24.6336 44.239 26.7315 44.239 28.9189C44.239 31.9481 43.3483 33.6397 41.0869 35.9941L40.58 36.5069C38.7145 38.3725 38.2406 39.1642 38.2406 40.9158C38.2406 41.5124 38.0036 42.0845 37.5818 42.5064C37.1599 42.9282 36.5878 43.1652 35.9912 43.1652C35.3946 43.1652 34.8225 42.9282 34.4006 42.5064C33.9788 42.0845 33.7418 41.5124 33.7418 40.9158C33.7418 37.8866 34.6325 36.195 36.8939 33.8406L37.4008 33.3278C39.2663 31.4623 39.7402 30.6705 39.7402 28.9189C39.7371 27.96 39.3667 27.0387 38.7051 26.3446C38.0435 25.6504 37.1411 25.2361 36.1834 25.187C35.2258 25.1378 34.2857 25.4575 33.5565 26.0802C32.8273 26.703 32.3645 27.5815 32.2632 28.535L32.2422 28.9189C32.2422 29.5155 32.0052 30.0877 31.5833 30.5095C31.1615 30.9313 30.5893 31.1683 29.9928 31.1683C29.3962 31.1683 28.824 30.9313 28.4022 30.5095C27.9803 30.0877 27.7433 29.5155 27.7433 28.9189C27.7433 26.7315 28.6123 24.6336 30.1591 23.0868C31.7059 21.54 33.8037 20.6711 35.9912 20.6711Z" fill="#101725"/>
</svg>
