<svg width="66" height="67" viewBox="0 0 66 67" fill="none" xmlns="http://www.w3.org/2000/svg">
<path d="M41.2576 12.4294V54.5764C41.2576 57.5111 37.7925 59.0668 35.6003 57.1167L23.3827 46.2536C23.0093 45.9223 22.5274 45.7394 22.0282 45.7395H12.0191C11.2154 45.7395 10.4197 45.5813 9.67719 45.2737C8.93472 44.9662 8.26009 44.5154 7.69183 43.9471C7.12356 43.3789 6.67279 42.7042 6.36525 41.9618C6.0577 41.2193 5.89941 40.4235 5.89941 39.6199V27.3859C5.90014 25.7634 6.5452 24.2075 7.69279 23.0604C8.84037 21.9134 10.3965 21.269 12.0191 21.269H22.0282C22.5277 21.2684 23.0097 21.0845 23.3827 20.7522L35.5975 9.89181C37.7925 7.94167 41.2576 9.49743 41.2576 12.4294ZM52.1152 16.9118C52.5499 16.5897 53.0946 16.4535 53.6297 16.5331C54.1647 16.6127 54.6463 16.9015 54.9684 17.3361C58.4372 22.0147 60.3057 27.6868 60.2966 33.5111C60.3041 39.3347 58.4348 45.0057 54.9657 49.6833C54.6402 50.1087 54.1605 50.3891 53.6301 50.4638C53.0998 50.5385 52.5613 50.4017 52.131 50.0828C51.7006 49.7639 51.413 49.2885 51.3302 48.7593C51.2473 48.2302 51.3759 47.6897 51.6882 47.2545C54.6366 43.2796 56.2247 38.46 56.2168 33.5111C56.2253 28.5612 54.6372 23.7405 51.6882 19.7649C51.5285 19.5494 51.4128 19.3046 51.3478 19.0444C51.2828 18.7842 51.2698 18.5137 51.3095 18.2484C51.3491 17.9831 51.4407 17.7283 51.579 17.4985C51.7172 17.2687 51.8995 17.0684 52.1152 16.909V16.9118ZM47.0862 23.6353C47.3218 23.5075 47.5802 23.4274 47.8467 23.3996C48.1132 23.3717 48.3826 23.3966 48.6394 23.4729C48.8963 23.5492 49.1356 23.6753 49.3437 23.8441C49.5519 24.0129 49.7247 24.221 49.8523 24.4566C51.3102 27.1493 52.137 30.2363 52.137 33.5111C52.1415 36.6715 51.3562 39.783 49.8523 42.5627C49.7248 42.7985 49.5521 43.0068 49.3441 43.1758C49.1361 43.3448 48.8968 43.4712 48.64 43.5477C48.3831 43.6242 48.1137 43.6494 47.8471 43.6218C47.5805 43.5942 47.322 43.5144 47.0862 43.3869C46.8505 43.2593 46.6422 43.0867 46.4732 42.8786C46.3042 42.6706 46.1778 42.4314 46.1013 42.1745C46.0248 41.9176 45.9996 41.6482 46.0272 41.3816C46.0548 41.115 46.1346 40.8565 46.2621 40.6208C47.4432 38.4373 48.0602 35.9935 48.0572 33.5111C48.0572 30.9326 47.4045 28.512 46.2621 26.3986C46.0052 25.9228 45.9477 25.3645 46.1022 24.8464C46.2567 24.3282 46.6107 23.8926 47.0862 23.6353V23.6353Z" fill="#699BF7"/>
</svg>
