<svg xmlns="http://www.w3.org/2000/svg" xmlns:xlink="http://www.w3.org/1999/xlink" viewBox="0 0 57 57"><defs><style>.cls-1{fill:#fff;}.cls-2{fill:url(#linear-gradient);}</style><linearGradient id="linear-gradient" x1="28.5" y1="43.07" x2="28.5" y2="13.18" gradientUnits="userSpaceOnUse"><stop offset="0.17" stop-color="#5bc35e"/><stop offset="0.32" stop-color="#6dcd5c"/><stop offset="0.9" stop-color="#aef255"/></linearGradient></defs><title>ios</title><g id="Layer_2" data-name="Layer 2"><g id="Layer_1-2" data-name="Layer 1"><g id="Page-1"><g id="Examples"><g id="Group"><g id="Rectangle-4"><rect id="path-1" class="cls-1" width="57" height="57" rx="11.4" ry="11.4"/></g></g></g></g><path class="cls-2" d="M31.91,13.44,49.48,35.2a4.47,4.47,0,0,1,0,5.61l-.08.1a4.47,4.47,0,0,1-7,0L32,27.95a4.47,4.47,0,0,0-7,.08h0a4.6,4.6,0,0,0,0,5.67L28.39,38a4.47,4.47,0,0,1-3.5,7.25h0a4.47,4.47,0,0,1-3.44-1.62l-2.91-3.52a2.17,2.17,0,0,0-3.38,0l-.59.75A4.47,4.47,0,0,1,7.58,41h0a4.47,4.47,0,0,1-.07-5.66L24.93,13.46A4.47,4.47,0,0,1,31.91,13.44Z"/></g></g></svg>