<svg width="64" height="47" viewBox="0 0 64 47" fill="none" xmlns="http://www.w3.org/2000/svg">
<path d="M23.4857 23.3462C23.4857 25.4734 24.3518 27.5136 25.8935 29.0177C27.4352 30.5219 29.5261 31.367 31.7064 31.367C33.8866 31.367 35.9776 30.5219 37.5193 29.0177C39.0609 27.5136 39.927 25.4734 39.927 23.3462C39.927 21.219 39.0609 19.1788 37.5193 17.6746C35.9776 16.1705 33.8866 15.3254 31.7064 15.3254C29.5261 15.3254 27.4352 16.1705 25.8935 17.6746C24.3518 19.1788 23.4857 21.219 23.4857 23.3462ZM63.5761 21.4985C56.6179 7.19722 46.0999 0 32 0C17.8927 0 7.38204 7.19722 0.423843 21.5057C0.144747 22.0823 0 22.7121 0 23.3498C0 23.9875 0.144747 24.6172 0.423843 25.1938C7.38204 39.4952 17.9001 46.6924 32 46.6924C46.1072 46.6924 56.6179 39.4952 63.5761 25.1867C64.1413 24.0265 64.1413 22.6802 63.5761 21.4985ZM31.7064 35.9503C24.572 35.9503 18.7882 30.3071 18.7882 23.3462C18.7882 16.3853 24.572 10.7421 31.7064 10.7421C38.8407 10.7421 44.6246 16.3853 44.6246 23.3462C44.6246 30.3071 38.8407 35.9503 31.7064 35.9503Z" fill="#75E97B"/>
</svg>
