<svg width="66" height="67" viewBox="0 0 66 67" fill="none" xmlns="http://www.w3.org/2000/svg">
<path d="M13.676 41.6266H8.23633V52.506C8.23633 55.4979 10.6842 57.9457 13.676 57.9457H24.5555V52.506H13.676V41.6266ZM13.676 14.428H24.5555V8.98828H13.676C10.6842 8.98828 8.23633 11.4362 8.23633 14.428V25.3074H13.676V14.428ZM51.7541 8.98828H40.8746V14.428H51.7541V25.3074H57.1938V14.428C57.1938 11.4362 54.7459 8.98828 51.7541 8.98828ZM51.7541 52.506H40.8746V57.9457H51.7541C54.7459 57.9457 57.1938 55.4979 57.1938 52.506V41.6266H51.7541V52.506ZM32.7151 22.5876C26.7042 22.5876 21.8356 27.4561 21.8356 33.467C21.8356 39.4779 26.7042 44.3464 32.7151 44.3464C38.7259 44.3464 43.5945 39.4779 43.5945 33.467C43.5945 27.4561 38.7259 22.5876 32.7151 22.5876ZM32.7151 38.9067C29.7232 38.9067 27.2753 36.4588 27.2753 33.467C27.2753 30.4752 29.7232 28.0273 32.7151 28.0273C35.7069 28.0273 38.1548 30.4752 38.1548 33.467C38.1548 36.4588 35.7069 38.9067 32.7151 38.9067Z" fill="#D99BFF"/>
</svg>
