<svg width="72" height="72" viewBox="0 0 72 72" fill="none" xmlns="http://www.w3.org/2000/svg">
<path d="M14.8472 44.9751H8.9082V56.8532C8.9082 60.1196 11.5808 62.7922 14.8472 62.7922H26.7253V56.8532H14.8472V44.9751ZM14.8472 15.2799H26.7253V9.34082H14.8472C11.5808 9.34082 8.9082 12.0134 8.9082 15.2799V27.1579H14.8472V15.2799ZM56.4205 9.34082H44.5425V15.2799H56.4205V27.1579H62.3596V15.2799C62.3596 12.0134 59.687 9.34082 56.4205 9.34082ZM56.4205 56.8532H44.5425V62.7922H56.4205C59.687 62.7922 62.3596 60.1196 62.3596 56.8532V44.9751H56.4205V56.8532ZM35.6339 24.1884C29.0712 24.1884 23.7558 29.5039 23.7558 36.0665C23.7558 42.6291 29.0712 47.9446 35.6339 47.9446C42.1965 47.9446 47.512 42.6291 47.512 36.0665C47.512 29.5039 42.1965 24.1884 35.6339 24.1884ZM35.6339 42.0055C32.3674 42.0055 29.6948 39.333 29.6948 36.0665C29.6948 32.8 32.3674 30.1275 35.6339 30.1275C38.9004 30.1275 41.5729 32.8 41.5729 36.0665C41.5729 39.333 38.9004 42.0055 35.6339 42.0055Z" fill="#59C25E"/>
</svg>
