<svg width="86" height="86" viewBox="0 0 86 86" fill="none" xmlns="http://www.w3.org/2000/svg">
<path d="M51.6701 41.8705C54.1301 41.8705 56.1244 39.8762 56.1244 37.4162C56.1244 34.9562 54.1301 32.9619 51.6701 32.9619C49.2101 32.9619 47.2158 34.9562 47.2158 37.4162C47.2158 39.8762 49.2101 41.8705 51.6701 41.8705Z" fill="#59C25E"/>
<path d="M33.8527 41.8705C36.3128 41.8705 38.307 39.8762 38.307 37.4162C38.307 34.9562 36.3128 32.9619 33.8527 32.9619C31.3927 32.9619 29.3984 34.9562 29.3984 37.4162C29.3984 39.8762 31.3927 41.8705 33.8527 41.8705Z" fill="#59C25E"/>
<path d="M81.745 40.4094C81.2976 37.7792 80.1225 35.3269 78.3527 33.3304C76.5829 31.3339 74.2893 29.873 71.7318 29.1133C69.8546 25.167 67.2004 21.64 63.9279 18.7438C58.2977 13.7193 50.8858 10.6904 42.7612 10.6904C34.6365 10.6904 27.2246 13.7193 21.5944 18.7438C18.3161 21.6301 15.6435 25.1579 13.7905 29.1133C11.2301 29.8678 8.93352 31.327 7.16292 33.3245C5.39233 35.3219 4.21913 37.777 3.77728 40.4094C3.63474 41.1577 3.56348 41.9417 3.56348 42.7613C3.56348 43.5808 3.63474 44.3648 3.77728 45.1131C4.22466 47.7433 5.39983 50.1956 7.16959 52.1921C8.93936 54.1886 11.233 55.6495 13.7905 56.4092C15.6433 60.3306 18.2741 63.8344 21.5231 66.7075C27.1533 71.7675 34.6009 74.8321 42.7612 74.8321C50.9214 74.8321 58.3689 71.7675 64.0348 66.7075C67.2419 63.8567 69.9144 60.3289 71.7674 56.4092C74.3204 55.6475 76.6086 54.1853 78.3723 52.1886C80.136 50.1918 81.3045 47.7406 81.745 45.1131C81.8876 44.3648 81.9588 43.5808 81.9588 42.7613C81.9588 41.9417 81.8876 41.1577 81.745 40.4094ZM67.7051 49.8881C67.3488 49.8881 67.0281 49.8168 66.6717 49.7812C65.959 52.1687 64.9257 54.378 63.6072 56.4092C59.1529 63.2153 51.4915 67.7052 42.7612 67.7052C34.0308 67.7052 26.3694 63.2153 21.9151 56.4092C20.5966 54.378 19.5633 52.1687 18.8506 49.7812C18.4942 49.8168 18.1735 49.8881 17.8172 49.8881C13.8974 49.8881 10.6903 46.681 10.6903 42.7613C10.6903 38.8415 13.8974 35.6344 17.8172 35.6344C18.1735 35.6344 18.4942 35.7057 18.8506 35.7413C19.5633 33.3538 20.5966 31.1445 21.9151 29.1133C26.3694 22.3072 34.0308 17.8173 42.7612 17.8173C51.4915 17.8173 59.1529 22.3072 63.6072 29.1133C64.9257 31.1445 65.959 33.3538 66.6717 35.7413C67.0281 35.7057 67.3488 35.6344 67.7051 35.6344C71.6249 35.6344 74.832 38.8415 74.832 42.7613C74.832 46.681 71.6249 49.8881 67.7051 49.8881ZM42.7612 60.5784C49.9236 60.5784 56.0884 56.1954 58.7966 49.8881H26.7257C29.4339 56.1954 35.5987 60.5784 42.7612 60.5784Z" fill="#59C25E"/>
</svg>
