<svg width="79" height="79" viewBox="0 0 79 79" fill="none" xmlns="http://www.w3.org/2000/svg">
<path d="M47.3254 38.9955C49.5786 38.9955 51.4052 37.1689 51.4052 34.9157C51.4052 32.6625 49.5786 30.8359 47.3254 30.8359C45.0722 30.8359 43.2456 32.6625 43.2456 34.9157C43.2456 37.1689 45.0722 38.9955 47.3254 38.9955Z" fill="#F24E1E"/>
<path d="M31.0065 38.9955C33.2597 38.9955 35.0863 37.1689 35.0863 34.9157C35.0863 32.6625 33.2597 30.8359 31.0065 30.8359C28.7533 30.8359 26.9268 32.6625 26.9268 34.9157C26.9268 37.1689 28.7533 38.9955 31.0065 38.9955Z" fill="#F24E1E"/>
<path d="M74.8721 37.6578C74.4623 35.2488 73.386 33.0026 71.765 31.174C70.144 29.3454 68.0432 28.0073 65.7007 27.3115C63.9814 23.6969 61.5503 20.4665 58.5529 17.8138C53.3961 13.2118 46.6073 10.4375 39.1658 10.4375C31.7243 10.4375 24.9355 13.2118 19.7787 17.8138C16.7759 20.4575 14.3281 23.6886 12.6309 27.3115C10.2857 28.0025 8.18222 29.3391 6.56049 31.1686C4.93876 32.9981 3.8642 35.2468 3.4595 37.6578C3.32895 38.3432 3.26367 39.0613 3.26367 39.812C3.26367 40.5626 3.32895 41.2807 3.4595 41.9661C3.86927 44.3752 4.94563 46.6213 6.5666 48.4499C8.18758 50.2786 10.2884 51.6166 12.6309 52.3124C14.3278 55.9042 16.7375 59.1134 19.7134 61.7449C24.8702 66.3795 31.6916 69.1864 39.1658 69.1864C46.64 69.1864 53.4614 66.3795 58.6509 61.7449C61.5883 59.1338 64.0362 55.9026 65.7334 52.3124C68.0717 51.6148 70.1675 50.2756 71.7829 48.4467C73.3983 46.6178 74.4686 44.3726 74.8721 41.9661C75.0026 41.2807 75.0679 40.5626 75.0679 39.812C75.0679 39.0613 75.0026 38.3432 74.8721 37.6578ZM62.0126 46.3396C61.6862 46.3396 61.3925 46.2743 61.0661 46.2417C60.4133 48.4285 59.4668 50.452 58.2592 52.3124C54.1794 58.5463 47.1622 62.6588 39.1658 62.6588C31.1694 62.6588 24.1522 58.5463 20.0724 52.3124C18.8648 50.452 17.9183 48.4285 17.2655 46.2417C16.9391 46.2743 16.6454 46.3396 16.319 46.3396C12.7288 46.3396 9.79133 43.4022 9.79133 39.812C9.79133 36.2218 12.7288 33.2843 16.319 33.2843C16.6454 33.2843 16.9391 33.3496 17.2655 33.3822C17.9183 31.1955 18.8648 29.1719 20.0724 27.3115C24.1522 21.0776 31.1694 16.9652 39.1658 16.9652C47.1622 16.9652 54.1794 21.0776 58.2592 27.3115C59.4668 29.1719 60.4133 31.1955 61.0661 33.3822C61.3925 33.3496 61.6862 33.2843 62.0126 33.2843C65.6028 33.2843 68.5403 36.2218 68.5403 39.812C68.5403 43.4022 65.6028 46.3396 62.0126 46.3396ZM39.1658 56.1311C45.7261 56.1311 51.3725 52.1166 53.853 46.3396H24.4786C26.9591 52.1166 32.6055 56.1311 39.1658 56.1311Z" fill="#F24E1E"/>
</svg>
