<svg width="105" height="105" viewBox="0 0 105 105" fill="none" xmlns="http://www.w3.org/2000/svg">
<path d="M49.8339 27.8252C40.9253 26.6686 32.1397 24.5276 23.8382 29.7037C16.0862 34.5436 10.1472 42.8041 7.8831 51.6471C4.68388 64.1405 6.587 78.3647 15.1265 88.3725C19.8186 93.8604 27.6198 99.7092 34.5925 101.883C52.4917 107.478 74.6155 104.828 85.8456 88.151C89.053 83.3932 92.2686 76.9373 93.4417 71.2936C96.7311 55.4944 93.0479 36.9799 76.6909 30.1795C69.4065 27.1526 61.6218 28.8178 54.0093 28.2682C52.6065 28.1616 51.2202 28.0057 49.8339 27.8252Z" fill="#DB4437"/>
<path d="M77.0439 0.476056C82.983 0.279181 92.9416 2.93699 96.9693 7.17801C97.4615 7.71121 98.4048 8.4577 98.5443 9.11395C98.7658 10.1886 97.9127 11.1073 97.2892 11.8948C88.4298 23.2069 69.8663 30.0142 58.3819 22.3279C55.7026 26.8906 58.0537 18.3179 58.3818 16.669C59.7025 10.0901 64.7802 4.05262 71.0392 1.66551C72.9998 0.919025 75.0259 0.541681 77.0439 0.476056Z" fill="#BDCF46"/>
<path d="M58.5785 17.9812C58.521 17.768 58.4144 17.5793 58.2585 17.448C57.9304 17.1938 57.2495 16.9395 56.864 16.8C56.2816 16.5785 55.6581 16.4883 55.0511 16.4883C54.8214 16.4883 54.5999 16.4965 54.3867 16.5211C53.5663 16.6195 52.8609 16.923 52.3933 17.5875C51.7699 18.4488 51.8765 19.425 51.7124 20.4258C51.4827 21.8531 50.8101 23.1492 50.441 24.5437C50.1538 25.6184 49.9242 26.7094 49.7191 27.8086C49.5632 28.6125 49.432 29.4164 49.3335 30.2285C48.9808 33.2391 48.4886 36.2496 48.6199 39.293C48.6281 39.7113 48.6445 40.1297 48.6691 40.548C48.6773 40.7613 48.7019 40.9664 48.7347 41.1797C48.7839 41.4586 48.8003 41.7785 48.8331 42.0984C48.8495 42.2133 48.8577 42.3281 48.8742 42.443C48.9644 42.9352 49.1367 43.3945 49.6042 43.6488C50.1867 43.977 50.8757 44.1246 51.5648 44.1328C51.7781 44.1328 51.9831 44.1 52.1964 44.0836L52.7378 44.0508C53.0003 43.9769 53.2628 43.8785 53.5417 43.8047C53.9765 43.698 54.4031 43.4766 54.7066 43.1402C54.9773 42.8367 55.0101 42.525 54.9937 42.1641L54.9691 41.9098C54.9363 41.5898 54.9117 41.2617 54.8952 40.9336C54.8624 40.2855 54.8378 39.6211 54.8214 38.973C54.7722 37.5129 54.7968 36.0363 54.9281 34.5762C55.0183 33.7066 55.0593 32.8207 55.1331 31.9512C55.2234 30.7371 55.3956 29.5312 55.6007 28.3254C55.6499 28.0711 55.6745 27.825 55.7238 27.5789C56.0191 26.0367 56.5687 24.6504 57.1593 23.1902C57.43 22.5176 57.5449 21.8039 57.7909 21.1559C58.0617 20.4832 58.6605 20.1141 58.6605 19.3102C58.6605 18.941 58.6933 18.4078 58.5785 17.9812Z" fill="#855C52"/>
<path d="M32.1315 35.7578C31.0815 34.3468 28.2022 34.2074 26.1514 34.9129C23.6167 35.7824 21.3608 37.6773 19.7776 39.8101C18.4159 41.6476 16.4143 45.5031 18.3913 47.6113C19.3593 48.6367 20.5323 48.2347 21.6479 47.6769C23.6741 46.6679 24.8964 44.4613 26.6026 43.0422C28.3581 41.5902 34.5678 38.9816 32.1315 35.7578Z" fill="white"/>
<path d="M49.2354 41.8437C47.3159 41.4335 45.4455 40.7527 43.6901 39.8913C42.7713 39.4402 40.1135 37.3238 39.8428 39.5468C39.4983 42.2292 43.1979 44.5425 45.0354 45.4038C48.2018 46.8968 51.7455 47.43 55.1498 46.741C58.4311 46.0765 61.2284 44.4605 63.3284 41.6222C63.5991 41.2531 63.7795 40.8183 63.9108 40.4081C64.3784 38.9234 62.7541 38.907 61.8846 39.3253C61.1791 39.6617 60.5721 40.2031 59.8748 40.5394C58.5295 41.1874 57.1186 41.7124 55.683 41.9913C53.5338 42.4015 51.36 42.2949 49.2354 41.8437Z" fill="#B93221"/>
</svg>
