<svg width="834" height="61" viewBox="0 0 834 61" fill="none" xmlns="http://www.w3.org/2000/svg">
<path d="M0.321172 45V3H15.2612C18.4812 3 21.2012 3.48 23.4212 4.44C25.6412 5.4 27.3212 6.88 28.4612 8.88C29.6212 10.88 30.2012 13.44 30.2012 16.56C30.2012 19.72 29.6312 22.33 28.4912 24.39C27.3512 26.43 25.6812 27.95 23.4812 28.95C21.2812 29.93 18.6012 30.42 15.4412 30.42H8.00117V45H0.321172ZM8.00117 24H14.5412C17.1612 24 19.1212 23.41 20.4212 22.23C21.7412 21.05 22.4012 19.2 22.4012 16.68C22.4012 14.16 21.7312 12.32 20.3912 11.16C19.0712 10 17.0612 9.42 14.3612 9.42H8.00117V24ZM34.4546 45V15H41.4146L41.5946 18.18C42.3546 17.34 43.4246 16.5 44.8046 15.66C46.1846 14.82 47.6946 14.4 49.3346 14.4C49.8146 14.4 50.2546 14.44 50.6546 14.52L50.1146 21.84C49.6746 21.72 49.2346 21.64 48.7946 21.6C48.3746 21.56 47.9546 21.54 47.5346 21.54C46.2746 21.54 45.1246 21.83 44.0846 22.41C43.0446 22.99 42.3146 23.7 41.8946 24.54V45H34.4546ZM67.352 45.6C64.092 45.6 61.312 44.89 59.012 43.47C56.712 42.05 54.952 40.16 53.732 37.8C52.532 35.44 51.932 32.86 51.932 30.06C51.932 27.24 52.532 24.64 53.732 22.26C54.952 19.88 56.712 17.98 59.012 16.56C61.312 15.12 64.092 14.4 67.352 14.4C70.612 14.4 73.392 15.12 75.692 16.56C77.992 17.98 79.742 19.88 80.942 22.26C82.162 24.64 82.772 27.24 82.772 30.06C82.772 32.86 82.162 35.44 80.942 37.8C79.742 40.16 77.992 42.05 75.692 43.47C73.392 44.89 70.612 45.6 67.352 45.6ZM67.352 39.48C69.852 39.48 71.772 38.61 73.112 36.87C74.472 35.11 75.152 32.84 75.152 30.06C75.152 27.24 74.472 24.95 73.112 23.19C71.772 21.41 69.852 20.52 67.352 20.52C64.872 20.52 62.952 21.41 61.592 23.19C60.232 24.95 59.552 27.24 59.552 30.06C59.552 32.84 60.232 35.11 61.592 36.87C62.952 38.61 64.872 39.48 67.352 39.48ZM100.071 45.6C97.0307 45.6 94.4707 44.89 92.3907 43.47C90.3307 42.05 88.7707 40.16 87.7107 37.8C86.6707 35.44 86.1507 32.86 86.1507 30.06C86.1507 27.26 86.6707 24.68 87.7107 22.32C88.7707 19.96 90.3307 18.07 92.3907 16.65C94.4707 15.23 97.0307 14.52 100.071 14.52C102.271 14.52 104.131 14.89 105.651 15.63C107.171 16.35 108.511 17.28 109.671 18.42L107.871 19.98V-3.57628e-06H115.311V45H108.291L107.931 39.9L110.091 41.46C108.691 42.74 107.241 43.75 105.741 44.49C104.241 45.23 102.351 45.6 100.071 45.6ZM101.151 39.48C102.791 39.48 104.131 39.08 105.171 38.28C106.211 37.48 106.981 36.38 107.481 34.98C107.981 33.56 108.231 31.92 108.231 30.06C108.231 28.2 107.981 26.57 107.481 25.17C106.981 23.75 106.211 22.64 105.171 21.84C104.131 21.04 102.791 20.64 101.151 20.64C99.5907 20.64 98.2607 21.04 97.1607 21.84C96.0607 22.64 95.2207 23.75 94.6407 25.17C94.0607 26.57 93.7707 28.2 93.7707 30.06C93.7707 31.92 94.0607 33.56 94.6407 34.98C95.2207 36.38 96.0607 37.48 97.1607 38.28C98.2607 39.08 99.5907 39.48 101.151 39.48ZM134.648 45.6C131.528 45.6 129.038 44.98 127.178 43.74C125.318 42.5 123.978 40.8 123.158 38.64C122.338 36.46 121.928 33.96 121.928 31.14V15H129.368V31.14C129.368 33.92 129.828 35.99 130.748 37.35C131.688 38.69 133.208 39.36 135.308 39.36C136.988 39.36 138.378 38.96 139.478 38.16C140.598 37.36 141.528 36.24 142.268 34.8L140.948 38.58V15H148.388V45H141.428L141.068 39.78L142.688 41.88C141.968 42.8 140.828 43.65 139.268 44.43C137.728 45.21 136.188 45.6 134.648 45.6ZM169.254 45.6C165.814 45.6 162.924 44.9 160.584 43.5C158.264 42.08 156.504 40.2 155.304 37.86C154.124 35.5 153.534 32.9 153.534 30.06C153.534 27.2 154.124 24.59 155.304 22.23C156.484 19.85 158.254 17.95 160.614 16.53C162.974 15.11 165.934 14.4 169.494 14.4C171.174 14.4 172.694 14.59 174.054 14.97C175.414 15.33 176.574 15.78 177.534 16.32L176.934 22.32C176.014 21.84 174.974 21.44 173.814 21.12C172.674 20.8 171.474 20.64 170.214 20.64C167.334 20.64 165.104 21.51 163.524 23.25C161.944 24.99 161.154 27.26 161.154 30.06C161.154 32.72 161.964 34.96 163.584 36.78C165.204 38.58 167.394 39.48 170.154 39.48C171.334 39.48 172.494 39.31 173.634 38.97C174.794 38.61 175.914 38.12 176.994 37.5L177.654 43.8C176.614 44.34 175.354 44.77 173.874 45.09C172.414 45.43 170.874 45.6 169.254 45.6ZM192.418 45.6C190.538 45.6 189.008 45.22 187.828 44.46C186.648 43.68 185.778 42.69 185.218 41.49C184.658 40.29 184.378 39.04 184.378 37.74V21.12H180.118L180.778 15H184.378V8.4L191.818 7.62V15H198.418V21.12H191.818V34.68C191.818 36.2 191.908 37.3 192.088 37.98C192.268 38.64 192.678 39.06 193.318 39.24C193.958 39.4 194.978 39.48 196.378 39.48H198.418L197.758 45.6H192.418ZM217.88 45V3H233.6C237.6 3 241.16 3.84 244.28 5.52C247.4 7.18 249.85 9.58 251.63 12.72C253.41 15.84 254.3 19.6 254.3 24C254.3 28.4 253.41 32.17 251.63 35.31C249.85 38.43 247.4 40.83 244.28 42.51C241.16 44.17 237.6 45 233.6 45H217.88ZM225.56 38.16H233.6C236.32 38.16 238.59 37.59 240.41 36.45C242.23 35.31 243.6 33.68 244.52 31.56C245.44 29.44 245.9 26.92 245.9 24C245.9 21.08 245.44 18.56 244.52 16.44C243.6 14.32 242.23 12.69 240.41 11.55C238.59 10.41 236.32 9.84 233.6 9.84H225.56V38.16ZM274.032 45.6C270.412 45.6 267.392 44.88 264.972 43.44C262.572 41.98 260.772 40.06 259.572 37.68C258.372 35.28 257.772 32.66 257.772 29.82C257.772 27.08 258.332 24.55 259.452 22.23C260.592 19.91 262.252 18.05 264.432 16.65C266.612 15.23 269.272 14.52 272.412 14.52C275.292 14.52 277.692 15.11 279.612 16.29C281.532 17.47 282.972 19.05 283.932 21.03C284.892 22.99 285.372 25.16 285.372 27.54C285.372 28.2 285.332 28.87 285.252 29.55C285.172 30.21 285.052 30.9 284.892 31.62H265.512C265.792 33.48 266.372 34.99 267.252 36.15C268.152 37.29 269.242 38.13 270.522 38.67C271.822 39.21 273.212 39.48 274.692 39.48C276.432 39.48 278.052 39.26 279.552 38.82C281.052 38.36 282.432 37.76 283.692 37.02L284.052 43.32C282.912 43.92 281.492 44.45 279.792 44.91C278.092 45.37 276.172 45.6 274.032 45.6ZM265.692 26.58H277.812C277.812 25.68 277.642 24.78 277.302 23.88C276.962 22.96 276.392 22.19 275.592 21.57C274.812 20.95 273.752 20.64 272.412 20.64C270.492 20.64 268.982 21.2 267.882 22.32C266.782 23.44 266.052 24.86 265.692 26.58ZM298.971 45.6C296.991 45.6 295.201 45.41 293.601 45.03C292.021 44.65 290.431 44.1 288.831 43.38L289.491 37.02C291.031 37.92 292.541 38.65 294.021 39.21C295.521 39.75 297.091 40.02 298.731 40.02C300.211 40.02 301.341 39.78 302.121 39.3C302.901 38.82 303.291 38.06 303.291 37.02C303.291 36.24 303.081 35.6 302.661 35.1C302.261 34.6 301.651 34.15 300.831 33.75C300.011 33.35 298.991 32.92 297.771 32.46C295.931 31.78 294.361 31.04 293.061 30.24C291.781 29.44 290.801 28.48 290.121 27.36C289.461 26.22 289.131 24.82 289.131 23.16C289.131 21.44 289.581 19.92 290.481 18.6C291.381 17.28 292.661 16.25 294.321 15.51C295.981 14.77 297.951 14.4 300.231 14.4C302.131 14.4 303.831 14.61 305.331 15.03C306.851 15.45 308.251 16.02 309.531 16.74L308.871 23.1C307.531 22.16 306.181 21.39 304.821 20.79C303.461 20.17 301.971 19.86 300.351 19.86C299.071 19.86 298.081 20.12 297.381 20.64C296.681 21.16 296.331 21.9 296.331 22.86C296.331 24.02 296.821 24.89 297.801 25.47C298.781 26.05 300.351 26.76 302.511 27.6C303.911 28.14 305.121 28.7 306.141 29.28C307.181 29.86 308.041 30.5 308.721 31.2C309.401 31.9 309.901 32.7 310.221 33.6C310.561 34.48 310.731 35.5 310.731 36.66C310.731 38.56 310.271 40.18 309.351 41.52C308.451 42.84 307.121 43.85 305.361 44.55C303.621 45.25 301.491 45.6 298.971 45.6ZM315.822 45V15H323.262V45H315.822ZM315.822 10.44V3H323.262V10.44H315.822ZM342.116 60.12C339.316 60.12 336.866 59.77 334.766 59.07C332.686 58.39 331.066 57.41 329.906 56.13C328.766 54.85 328.196 53.32 328.196 51.54C328.196 50.04 328.606 48.7 329.426 47.52C330.266 46.36 331.476 45.34 333.056 44.46C332.256 43.98 331.616 43.38 331.136 42.66C330.656 41.94 330.416 41.12 330.416 40.2C330.416 39.24 330.686 38.41 331.226 37.71C331.786 36.99 332.516 36.42 333.416 36C331.896 34.92 330.746 33.54 329.966 31.86C329.186 30.16 328.796 28.32 328.796 26.34C328.796 24.18 329.266 22.2 330.206 20.4C331.146 18.58 332.516 17.13 334.316 16.05C336.136 14.95 338.356 14.4 340.976 14.4C342.336 14.4 343.586 14.57 344.726 14.91C345.886 15.25 346.916 15.72 347.816 16.32C348.416 15.98 349.286 15.68 350.426 15.42C351.566 15.14 352.836 15 354.236 15C354.576 15 354.896 15 355.196 15C355.516 15 355.836 15 356.156 15L355.676 19.68C355.236 19.68 354.786 19.68 354.326 19.68C353.886 19.68 353.436 19.68 352.976 19.68C352.796 19.68 352.556 19.68 352.256 19.68C351.956 19.68 351.636 19.7 351.296 19.74C351.896 20.66 352.346 21.69 352.646 22.83C352.946 23.97 353.096 25.14 353.096 26.34C353.096 28.5 352.626 30.49 351.686 32.31C350.766 34.11 349.406 35.56 347.606 36.66C345.806 37.74 343.596 38.28 340.976 38.28C340.416 38.28 339.876 38.24 339.356 38.16C338.836 38.08 338.316 37.98 337.796 37.86C337.356 38.04 337.136 38.36 337.136 38.82C337.136 39.36 337.466 39.77 338.126 40.05C338.786 40.33 339.816 40.58 341.216 40.8L346.376 41.46C349.596 41.88 352.116 42.79 353.936 44.19C355.776 45.59 356.696 47.58 356.696 50.16C356.696 52.16 356.116 53.9 354.956 55.38C353.816 56.88 352.156 58.04 349.976 58.86C347.796 59.7 345.176 60.12 342.116 60.12ZM342.416 54.48C344.936 54.48 346.846 54.17 348.146 53.55C349.446 52.93 350.096 51.98 350.096 50.7C350.096 49.56 349.636 48.72 348.716 48.18C347.816 47.64 346.376 47.22 344.396 46.92L337.826 45.96C336.846 46.34 336.026 46.86 335.366 47.52C334.706 48.2 334.376 49.08 334.376 50.16C334.376 51.62 335.086 52.7 336.506 53.4C337.926 54.12 339.896 54.48 342.416 54.48ZM340.976 32.76C342.756 32.76 344.096 32.18 344.996 31.02C345.916 29.84 346.376 28.28 346.376 26.34C346.376 24.38 345.916 22.82 344.996 21.66C344.096 20.5 342.756 19.92 340.976 19.92C339.176 19.92 337.816 20.5 336.896 21.66C335.976 22.82 335.516 24.38 335.516 26.34C335.516 28.28 335.976 29.84 336.896 31.02C337.816 32.18 339.176 32.76 340.976 32.76ZM360.294 45V15H367.254L367.554 20.58L365.814 18.3C366.954 17.34 368.314 16.47 369.894 15.69C371.474 14.91 373.314 14.52 375.414 14.52C379.254 14.52 382.104 15.8 383.964 18.36C385.824 20.9 386.754 24.2 386.754 28.26V45H379.314V28.86C379.314 26.06 378.844 23.99 377.904 22.65C376.984 21.31 375.474 20.64 373.374 20.64C371.674 20.64 370.284 21.06 369.204 21.9C368.124 22.72 367.174 23.82 366.354 25.2L367.734 21.54V45H360.294ZM407.86 45.6C404.24 45.6 401.22 44.88 398.8 43.44C396.4 41.98 394.6 40.06 393.4 37.68C392.2 35.28 391.6 32.66 391.6 29.82C391.6 27.08 392.16 24.55 393.28 22.23C394.42 19.91 396.08 18.05 398.26 16.65C400.44 15.23 403.1 14.52 406.24 14.52C409.12 14.52 411.52 15.11 413.44 16.29C415.36 17.47 416.8 19.05 417.76 21.03C418.72 22.99 419.2 25.16 419.2 27.54C419.2 28.2 419.16 28.87 419.08 29.55C419 30.21 418.88 30.9 418.72 31.62H399.34C399.62 33.48 400.2 34.99 401.08 36.15C401.98 37.29 403.07 38.13 404.35 38.67C405.65 39.21 407.04 39.48 408.52 39.48C410.26 39.48 411.88 39.26 413.38 38.82C414.88 38.36 416.26 37.76 417.52 37.02L417.88 43.32C416.74 43.92 415.32 44.45 413.62 44.91C411.92 45.37 410 45.6 407.86 45.6ZM399.52 26.58H411.64C411.64 25.68 411.47 24.78 411.13 23.88C410.79 22.96 410.22 22.19 409.42 21.57C408.64 20.95 407.58 20.64 406.24 20.64C404.32 20.64 402.81 21.2 401.71 22.32C400.61 23.44 399.88 24.86 399.52 26.58ZM424.279 45V15H431.239L431.419 18.18C432.179 17.34 433.249 16.5 434.629 15.66C436.009 14.82 437.519 14.4 439.159 14.4C439.639 14.4 440.079 14.44 440.479 14.52L439.939 21.84C439.499 21.72 439.059 21.64 438.619 21.6C438.199 21.56 437.779 21.54 437.359 21.54C436.099 21.54 434.949 21.83 433.909 22.41C432.869 22.99 432.139 23.7 431.719 24.54V45H424.279ZM464.52 39.24V31.2H456.48V25.56H464.52V17.52H470.64V25.56H478.68V31.2H470.64V39.24H464.52ZM499.188 45V3H526.068V10.44H507.048V19.38H521.808V26.82H507.048V37.56H526.668V45H499.188ZM531.857 45V15H538.817L539.117 20.58L537.377 18.3C538.517 17.34 539.877 16.47 541.457 15.69C543.037 14.91 544.877 14.52 546.977 14.52C550.817 14.52 553.667 15.8 555.527 18.36C557.387 20.9 558.317 24.2 558.317 28.26V45H550.877V28.86C550.877 26.06 550.407 23.99 549.467 22.65C548.547 21.31 547.037 20.64 544.937 20.64C543.237 20.64 541.847 21.06 540.767 21.9C539.687 22.72 538.737 23.82 537.917 25.2L539.297 21.54V45H531.857ZM574.391 45.6C572.511 45.6 570.981 45.22 569.801 44.46C568.621 43.68 567.751 42.69 567.191 41.49C566.631 40.29 566.351 39.04 566.351 37.74V21.12H562.091L562.751 15H566.351V8.4L573.791 7.62V15H580.391V21.12H573.791V34.68C573.791 36.2 573.881 37.3 574.061 37.98C574.241 38.64 574.651 39.06 575.291 39.24C575.931 39.4 576.951 39.48 578.351 39.48H580.391L579.731 45.6H574.391ZM585.236 45V15H592.196L592.376 18.18C593.136 17.34 594.206 16.5 595.586 15.66C596.966 14.82 598.476 14.4 600.116 14.4C600.596 14.4 601.036 14.44 601.436 14.52L600.896 21.84C600.456 21.72 600.016 21.64 599.576 21.6C599.156 21.56 598.736 21.54 598.316 21.54C597.056 21.54 595.906 21.83 594.866 22.41C593.826 22.99 593.096 23.7 592.676 24.54V45H585.236ZM618.973 45.6C615.353 45.6 612.333 44.88 609.913 43.44C607.513 41.98 605.713 40.06 604.513 37.68C603.313 35.28 602.713 32.66 602.713 29.82C602.713 27.08 603.273 24.55 604.393 22.23C605.533 19.91 607.193 18.05 609.373 16.65C611.553 15.23 614.213 14.52 617.353 14.52C620.233 14.52 622.633 15.11 624.553 16.29C626.473 17.47 627.913 19.05 628.873 21.03C629.833 22.99 630.313 25.16 630.313 27.54C630.313 28.2 630.273 28.87 630.193 29.55C630.113 30.21 629.993 30.9 629.833 31.62H610.453C610.733 33.48 611.313 34.99 612.193 36.15C613.093 37.29 614.183 38.13 615.463 38.67C616.763 39.21 618.153 39.48 619.633 39.48C621.373 39.48 622.993 39.26 624.493 38.82C625.993 38.36 627.373 37.76 628.633 37.02L628.993 43.32C627.853 43.92 626.433 44.45 624.733 44.91C623.033 45.37 621.113 45.6 618.973 45.6ZM610.633 26.58H622.753C622.753 25.68 622.583 24.78 622.243 23.88C621.903 22.96 621.333 22.19 620.533 21.57C619.753 20.95 618.693 20.64 617.353 20.64C615.433 20.64 613.923 21.2 612.823 22.32C611.723 23.44 610.993 24.86 610.633 26.58ZM635.392 59.52V15H641.392L642.832 19.98L640.612 19.2C641.992 17.78 643.492 16.65 645.112 15.81C646.732 14.95 648.712 14.52 651.052 14.52C653.992 14.52 656.462 15.23 658.462 16.65C660.462 18.07 661.972 19.96 662.992 22.32C664.032 24.68 664.552 27.26 664.552 30.06C664.552 32.86 664.032 35.44 662.992 37.8C661.972 40.16 660.462 42.05 658.462 43.47C656.462 44.89 653.992 45.6 651.052 45.6C648.712 45.6 646.812 45.28 645.352 44.64C643.892 44 642.412 42.98 640.912 41.58L642.832 40.08V59.52H635.392ZM649.912 39.48C652.132 39.48 653.852 38.61 655.072 36.87C656.312 35.11 656.932 32.84 656.932 30.06C656.932 27.26 656.312 24.99 655.072 23.25C653.852 21.51 652.132 20.64 649.912 20.64C648.192 20.64 646.782 21.04 645.682 21.84C644.582 22.64 643.772 23.75 643.252 25.17C642.732 26.57 642.472 28.2 642.472 30.06C642.472 31.92 642.732 33.56 643.252 34.98C643.772 36.38 644.582 37.48 645.682 38.28C646.782 39.08 648.192 39.48 649.912 39.48ZM669.728 45V15H676.688L676.868 18.18C677.628 17.34 678.698 16.5 680.078 15.66C681.458 14.82 682.968 14.4 684.608 14.4C685.088 14.4 685.528 14.44 685.928 14.52L685.388 21.84C684.948 21.72 684.508 21.64 684.068 21.6C683.648 21.56 683.228 21.54 682.808 21.54C681.548 21.54 680.398 21.83 679.358 22.41C678.318 22.99 677.588 23.7 677.168 24.54V45H669.728ZM703.465 45.6C699.845 45.6 696.825 44.88 694.405 43.44C692.005 41.98 690.205 40.06 689.005 37.68C687.805 35.28 687.205 32.66 687.205 29.82C687.205 27.08 687.765 24.55 688.885 22.23C690.025 19.91 691.685 18.05 693.865 16.65C696.045 15.23 698.705 14.52 701.845 14.52C704.725 14.52 707.125 15.11 709.045 16.29C710.965 17.47 712.405 19.05 713.365 21.03C714.325 22.99 714.805 25.16 714.805 27.54C714.805 28.2 714.765 28.87 714.685 29.55C714.605 30.21 714.485 30.9 714.325 31.62H694.945C695.225 33.48 695.805 34.99 696.685 36.15C697.585 37.29 698.675 38.13 699.955 38.67C701.255 39.21 702.645 39.48 704.125 39.48C705.865 39.48 707.485 39.26 708.985 38.82C710.485 38.36 711.865 37.76 713.125 37.02L713.485 43.32C712.345 43.92 710.925 44.45 709.225 44.91C707.525 45.37 705.605 45.6 703.465 45.6ZM695.125 26.58H707.245C707.245 25.68 707.075 24.78 706.735 23.88C706.395 22.96 705.825 22.19 705.025 21.57C704.245 20.95 703.185 20.64 701.845 20.64C699.925 20.64 698.415 21.2 697.315 22.32C696.215 23.44 695.485 24.86 695.125 26.58ZM719.884 45V15H726.844L727.144 20.58L725.404 18.3C726.544 17.34 727.904 16.47 729.484 15.69C731.064 14.91 732.904 14.52 735.004 14.52C738.844 14.52 741.694 15.8 743.554 18.36C745.414 20.9 746.344 24.2 746.344 28.26V45H738.904V28.86C738.904 26.06 738.434 23.99 737.494 22.65C736.574 21.31 735.064 20.64 732.964 20.64C731.264 20.64 729.874 21.06 728.794 21.9C727.714 22.72 726.764 23.82 725.944 25.2L727.324 21.54V45H719.884ZM767.45 45.6C763.83 45.6 760.81 44.88 758.39 43.44C755.99 41.98 754.19 40.06 752.99 37.68C751.79 35.28 751.19 32.66 751.19 29.82C751.19 27.08 751.75 24.55 752.87 22.23C754.01 19.91 755.67 18.05 757.85 16.65C760.03 15.23 762.69 14.52 765.83 14.52C768.71 14.52 771.11 15.11 773.03 16.29C774.95 17.47 776.39 19.05 777.35 21.03C778.31 22.99 778.79 25.16 778.79 27.54C778.79 28.2 778.75 28.87 778.67 29.55C778.59 30.21 778.47 30.9 778.31 31.62H758.93C759.21 33.48 759.79 34.99 760.67 36.15C761.57 37.29 762.66 38.13 763.94 38.67C765.24 39.21 766.63 39.48 768.11 39.48C769.85 39.48 771.47 39.26 772.97 38.82C774.47 38.36 775.85 37.76 777.11 37.02L777.47 43.32C776.33 43.92 774.91 44.45 773.21 44.91C771.51 45.37 769.59 45.6 767.45 45.6ZM759.11 26.58H771.23C771.23 25.68 771.06 24.78 770.72 23.88C770.38 22.96 769.81 22.19 769.01 21.57C768.23 20.95 767.17 20.64 765.83 20.64C763.91 20.64 762.4 21.2 761.3 22.32C760.2 23.44 759.47 24.86 759.11 26.58ZM796.289 45.6C793.169 45.6 790.679 44.98 788.819 43.74C786.959 42.5 785.619 40.8 784.799 38.64C783.979 36.46 783.569 33.96 783.569 31.14V15H791.009V31.14C791.009 33.92 791.469 35.99 792.389 37.35C793.329 38.69 794.849 39.36 796.949 39.36C798.629 39.36 800.019 38.96 801.119 38.16C802.239 37.36 803.169 36.24 803.909 34.8L802.589 38.58V15H810.029V45H803.069L802.709 39.78L804.329 41.88C803.609 42.8 802.469 43.65 800.909 44.43C799.369 45.21 797.829 45.6 796.289 45.6ZM816.974 45V15H823.934L824.114 18.18C824.874 17.34 825.944 16.5 827.324 15.66C828.704 14.82 830.214 14.4 831.854 14.4C832.334 14.4 832.774 14.44 833.174 14.52L832.634 21.84C832.194 21.72 831.754 21.64 831.314 21.6C830.894 21.56 830.474 21.54 830.054 21.54C828.794 21.54 827.644 21.83 826.604 22.41C825.564 22.99 824.834 23.7 824.414 24.54V45H816.974Z" fill="url(#paint0_radial_676_10012)"/>
<defs>
<radialGradient id="paint0_radial_676_10012" cx="0" cy="0" r="1" gradientUnits="userSpaceOnUse" gradientTransform="translate(384.5 7.00002) rotate(76.9416) scale(134.991 3407.7)">
<stop stop-color="#99387D"/>
<stop offset="1" stop-color="#2E8CDF"/>
</radialGradient>
</defs>
</svg>
