<svg width="612" height="31" viewBox="0 0 612 31" fill="none" xmlns="http://www.w3.org/2000/svg">
<path d="M6.72 5.18H0.21V1.76H17.01V5.18H10.5V23H6.72V5.18ZM22.8666 10.61H22.9266C23.2066 10.01 23.6966 9.47 24.3966 8.99C25.1166 8.49 26.0366 8.24 27.1566 8.24C28.1166 8.24 28.9266 8.4 29.5866 8.72C30.2666 9.04 30.8166 9.46 31.2366 9.98C31.6566 10.5 31.9566 11.1 32.1366 11.78C32.3166 12.46 32.4066 13.17 32.4066 13.91V23H28.8066V15.71C28.8066 15.31 28.7866 14.87 28.7466 14.39C28.7066 13.89 28.5966 13.43 28.4166 13.01C28.2566 12.57 27.9966 12.21 27.6366 11.93C27.2766 11.63 26.7866 11.48 26.1666 11.48C25.5666 11.48 25.0566 11.58 24.6366 11.78C24.2366 11.98 23.8966 12.25 23.6166 12.59C23.3566 12.93 23.1666 13.32 23.0466 13.76C22.9266 14.2 22.8666 14.66 22.8666 15.14V23H19.2666V0.319999H22.8666V10.61ZM36.5531 8.6H40.1531V23H36.5531V8.6ZM36.0431 3.71C36.0431 3.13 36.2531 2.63 36.6731 2.21C37.1131 1.77 37.6631 1.55 38.3231 1.55C38.9831 1.55 39.5331 1.76 39.9731 2.18C40.4331 2.58 40.6631 3.09 40.6631 3.71C40.6631 4.33 40.4331 4.85 39.9731 5.27C39.5331 5.67 38.9831 5.87 38.3231 5.87C37.6631 5.87 37.1131 5.66 36.6731 5.24C36.2531 4.8 36.0431 4.29 36.0431 3.71ZM44.2861 8.6H47.7061V10.91H47.7661C48.1061 10.19 48.6261 9.57 49.3261 9.05C50.0261 8.51 50.9761 8.24 52.1761 8.24C53.1361 8.24 53.9461 8.4 54.6061 8.72C55.2861 9.04 55.8361 9.46 56.2561 9.98C56.6761 10.5 56.9761 11.1 57.1561 11.78C57.3361 12.46 57.4261 13.17 57.4261 13.91V23H53.8261V15.71C53.8261 15.31 53.8061 14.87 53.7661 14.39C53.7261 13.89 53.6161 13.43 53.4361 13.01C53.2761 12.57 53.0161 12.21 52.6561 11.93C52.2961 11.63 51.8061 11.48 51.1861 11.48C50.5861 11.48 50.0761 11.58 49.6561 11.78C49.2561 11.98 48.9161 12.25 48.6361 12.59C48.3761 12.93 48.1861 13.32 48.0661 13.76C47.9461 14.2 47.8861 14.66 47.8861 15.14V23H44.2861V8.6ZM61.5127 0.319999H65.1127V14.57L70.6627 8.6H75.2827L69.1027 15.14L75.6727 23H70.9027L65.1727 15.65H65.1127V23H61.5127V0.319999ZM95.5029 21.02H95.4129C94.8929 21.84 94.2329 22.44 93.4329 22.82C92.6329 23.18 91.7529 23.36 90.7929 23.36C90.1329 23.36 89.4829 23.27 88.8429 23.09C88.2229 22.91 87.6629 22.64 87.1629 22.28C86.6829 21.92 86.2929 21.47 85.9929 20.93C85.6929 20.39 85.5429 19.76 85.5429 19.04C85.5429 18.26 85.6829 17.6 85.9629 17.06C86.2429 16.5 86.6129 16.04 87.0729 15.68C87.5529 15.3 88.1029 15 88.7229 14.78C89.3429 14.56 89.9829 14.4 90.6429 14.3C91.3229 14.18 92.0029 14.11 92.6829 14.09C93.3629 14.05 94.0029 14.03 94.6029 14.03H95.5029V13.64C95.5029 12.74 95.1929 12.07 94.5729 11.63C93.9529 11.17 93.1629 10.94 92.2029 10.94C91.4429 10.94 90.7329 11.08 90.0729 11.36C89.4129 11.62 88.8429 11.98 88.3629 12.44L86.4729 10.55C87.2729 9.73 88.2029 9.14 89.2629 8.78C90.3429 8.42 91.4529 8.24 92.5929 8.24C93.6129 8.24 94.4729 8.36 95.1729 8.6C95.8729 8.82 96.4529 9.11 96.9129 9.47C97.3729 9.83 97.7229 10.25 97.9629 10.73C98.2229 11.19 98.4029 11.66 98.5029 12.14C98.6229 12.62 98.6929 13.09 98.7129 13.55C98.7329 13.99 98.7429 14.38 98.7429 14.72V23H95.5029V21.02ZM95.2929 16.55H94.5429C94.0429 16.55 93.4829 16.57 92.8629 16.61C92.2429 16.65 91.6529 16.75 91.0929 16.91C90.5529 17.05 90.0929 17.27 89.7129 17.57C89.3329 17.85 89.1429 18.25 89.1429 18.77C89.1429 19.11 89.2129 19.4 89.3529 19.64C89.5129 19.86 89.7129 20.05 89.9529 20.21C90.1929 20.37 90.4629 20.49 90.7629 20.57C91.0629 20.63 91.3629 20.66 91.6629 20.66C92.9029 20.66 93.8129 20.37 94.3929 19.79C94.9929 19.19 95.2929 18.38 95.2929 17.36V16.55ZM110.296 12.59C109.596 11.61 108.656 11.12 107.476 11.12C106.996 11.12 106.526 11.24 106.066 11.48C105.606 11.72 105.376 12.11 105.376 12.65C105.376 13.09 105.566 13.41 105.946 13.61C106.326 13.81 106.806 13.98 107.386 14.12C107.966 14.26 108.586 14.41 109.246 14.57C109.926 14.71 110.556 14.94 111.136 15.26C111.716 15.56 112.196 15.98 112.576 16.52C112.956 17.06 113.146 17.8 113.146 18.74C113.146 19.6 112.956 20.33 112.576 20.93C112.216 21.51 111.736 21.98 111.136 22.34C110.556 22.7 109.896 22.96 109.156 23.12C108.416 23.28 107.676 23.36 106.936 23.36C105.816 23.36 104.786 23.2 103.846 22.88C102.906 22.56 102.066 21.98 101.326 21.14L103.726 18.89C104.186 19.41 104.676 19.84 105.196 20.18C105.736 20.5 106.386 20.66 107.146 20.66C107.406 20.66 107.676 20.63 107.956 20.57C108.236 20.51 108.496 20.41 108.736 20.27C108.976 20.13 109.166 19.96 109.306 19.76C109.466 19.54 109.546 19.29 109.546 19.01C109.546 18.51 109.356 18.14 108.976 17.9C108.596 17.66 108.116 17.47 107.536 17.33C106.956 17.17 106.326 17.03 105.646 16.91C104.986 16.77 104.366 16.56 103.786 16.28C103.206 15.98 102.726 15.57 102.346 15.05C101.966 14.53 101.776 13.81 101.776 12.89C101.776 12.09 101.936 11.4 102.256 10.82C102.596 10.22 103.036 9.73 103.576 9.35C104.116 8.97 104.736 8.69 105.436 8.51C106.136 8.33 106.846 8.24 107.566 8.24C108.526 8.24 109.476 8.41 110.416 8.75C111.356 9.07 112.116 9.63 112.696 10.43L110.296 12.59ZM133.823 21.02H133.733C133.213 21.84 132.553 22.44 131.753 22.82C130.953 23.18 130.073 23.36 129.113 23.36C128.453 23.36 127.803 23.27 127.163 23.09C126.543 22.91 125.983 22.64 125.483 22.28C125.003 21.92 124.613 21.47 124.313 20.93C124.013 20.39 123.863 19.76 123.863 19.04C123.863 18.26 124.003 17.6 124.283 17.06C124.563 16.5 124.933 16.04 125.393 15.68C125.873 15.3 126.423 15 127.043 14.78C127.663 14.56 128.303 14.4 128.963 14.3C129.643 14.18 130.323 14.11 131.003 14.09C131.683 14.05 132.323 14.03 132.923 14.03H133.823V13.64C133.823 12.74 133.513 12.07 132.893 11.63C132.273 11.17 131.483 10.94 130.523 10.94C129.763 10.94 129.053 11.08 128.393 11.36C127.733 11.62 127.163 11.98 126.683 12.44L124.793 10.55C125.593 9.73 126.523 9.14 127.583 8.78C128.663 8.42 129.773 8.24 130.913 8.24C131.933 8.24 132.793 8.36 133.493 8.6C134.193 8.82 134.773 9.11 135.233 9.47C135.693 9.83 136.043 10.25 136.283 10.73C136.543 11.19 136.723 11.66 136.823 12.14C136.943 12.62 137.013 13.09 137.033 13.55C137.053 13.99 137.063 14.38 137.063 14.72V23H133.823V21.02ZM133.613 16.55H132.863C132.363 16.55 131.803 16.57 131.183 16.61C130.563 16.65 129.973 16.75 129.413 16.91C128.873 17.05 128.413 17.27 128.033 17.57C127.653 17.85 127.463 18.25 127.463 18.77C127.463 19.11 127.533 19.4 127.673 19.64C127.833 19.86 128.033 20.05 128.273 20.21C128.513 20.37 128.783 20.49 129.083 20.57C129.383 20.63 129.683 20.66 129.983 20.66C131.223 20.66 132.133 20.37 132.713 19.79C133.313 19.19 133.613 18.38 133.613 17.36V16.55ZM150.143 1.76H158.513C159.913 1.76 161.263 1.98 162.563 2.42C163.863 2.84 165.013 3.49 166.013 4.37C167.013 5.25 167.813 6.36 168.413 7.7C169.013 9.02 169.313 10.58 169.313 12.38C169.313 14.2 168.963 15.78 168.263 17.12C167.583 18.44 166.693 19.54 165.593 20.42C164.513 21.28 163.303 21.93 161.963 22.37C160.643 22.79 159.343 23 158.063 23H150.143V1.76ZM156.743 19.58C157.923 19.58 159.033 19.45 160.073 19.19C161.133 18.91 162.053 18.49 162.833 17.93C163.613 17.35 164.223 16.61 164.663 15.71C165.123 14.79 165.353 13.68 165.353 12.38C165.353 11.1 165.153 10 164.753 9.08C164.353 8.16 163.793 7.42 163.073 6.86C162.373 6.28 161.533 5.86 160.553 5.6C159.593 5.32 158.533 5.18 157.373 5.18H153.923V19.58H156.743ZM175.457 17.06C175.577 18.14 175.997 18.98 176.717 19.58C177.437 20.18 178.307 20.48 179.327 20.48C180.227 20.48 180.977 20.3 181.577 19.94C182.197 19.56 182.737 19.09 183.197 18.53L185.777 20.48C184.937 21.52 183.997 22.26 182.957 22.7C181.917 23.14 180.827 23.36 179.687 23.36C178.607 23.36 177.587 23.18 176.627 22.82C175.667 22.46 174.837 21.95 174.137 21.29C173.437 20.63 172.877 19.84 172.457 18.92C172.057 17.98 171.857 16.94 171.857 15.8C171.857 14.66 172.057 13.63 172.457 12.71C172.877 11.77 173.437 10.97 174.137 10.31C174.837 9.65 175.667 9.14 176.627 8.78C177.587 8.42 178.607 8.24 179.687 8.24C180.687 8.24 181.597 8.42 182.417 8.78C183.257 9.12 183.967 9.62 184.547 10.28C185.147 10.94 185.607 11.76 185.927 12.74C186.267 13.7 186.437 14.81 186.437 16.07V17.06H175.457ZM182.837 14.36C182.817 13.3 182.487 12.47 181.847 11.87C181.207 11.25 180.317 10.94 179.177 10.94C178.097 10.94 177.237 11.25 176.597 11.87C175.977 12.49 175.597 13.32 175.457 14.36H182.837ZM197.484 12.59C196.784 11.61 195.844 11.12 194.664 11.12C194.184 11.12 193.714 11.24 193.254 11.48C192.794 11.72 192.564 12.11 192.564 12.65C192.564 13.09 192.754 13.41 193.134 13.61C193.514 13.81 193.994 13.98 194.574 14.12C195.154 14.26 195.774 14.41 196.434 14.57C197.114 14.71 197.744 14.94 198.324 15.26C198.904 15.56 199.384 15.98 199.764 16.52C200.144 17.06 200.334 17.8 200.334 18.74C200.334 19.6 200.144 20.33 199.764 20.93C199.404 21.51 198.924 21.98 198.324 22.34C197.744 22.7 197.084 22.96 196.344 23.12C195.604 23.28 194.864 23.36 194.124 23.36C193.004 23.36 191.974 23.2 191.034 22.88C190.094 22.56 189.254 21.98 188.514 21.14L190.914 18.89C191.374 19.41 191.864 19.84 192.384 20.18C192.924 20.5 193.574 20.66 194.334 20.66C194.594 20.66 194.864 20.63 195.144 20.57C195.424 20.51 195.684 20.41 195.924 20.27C196.164 20.13 196.354 19.96 196.494 19.76C196.654 19.54 196.734 19.29 196.734 19.01C196.734 18.51 196.544 18.14 196.164 17.9C195.784 17.66 195.304 17.47 194.724 17.33C194.144 17.17 193.514 17.03 192.834 16.91C192.174 16.77 191.554 16.56 190.974 16.28C190.394 15.98 189.914 15.57 189.534 15.05C189.154 14.53 188.964 13.81 188.964 12.89C188.964 12.09 189.124 11.4 189.444 10.82C189.784 10.22 190.224 9.73 190.764 9.35C191.304 8.97 191.924 8.69 192.624 8.51C193.324 8.33 194.034 8.24 194.754 8.24C195.714 8.24 196.664 8.41 197.604 8.75C198.544 9.07 199.304 9.63 199.884 10.43L197.484 12.59ZM203.194 8.6H206.794V23H203.194V8.6ZM202.684 3.71C202.684 3.13 202.894 2.63 203.314 2.21C203.754 1.77 204.304 1.55 204.964 1.55C205.624 1.55 206.174 1.76 206.614 2.18C207.074 2.58 207.304 3.09 207.304 3.71C207.304 4.33 207.074 4.85 206.614 5.27C206.174 5.67 205.624 5.87 204.964 5.87C204.304 5.87 203.754 5.66 203.314 5.24C202.894 4.8 202.684 4.29 202.684 3.71ZM225.747 8.6V21.71C225.747 23.01 225.587 24.18 225.267 25.22C224.947 26.28 224.447 27.17 223.767 27.89C223.107 28.63 222.267 29.2 221.247 29.6C220.227 30 219.017 30.2 217.617 30.2C216.277 30.2 215.007 30.03 213.807 29.69C212.607 29.35 211.497 28.73 210.477 27.83L212.637 24.89C213.357 25.55 214.107 26.06 214.887 26.42C215.667 26.78 216.567 26.96 217.587 26.96C218.447 26.96 219.167 26.84 219.747 26.6C220.347 26.36 220.817 26.03 221.157 25.61C221.517 25.19 221.767 24.68 221.907 24.08C222.067 23.5 222.147 22.85 222.147 22.13V21.08H222.087C221.567 21.78 220.877 22.31 220.017 22.67C219.157 23.01 218.277 23.18 217.377 23.18C216.297 23.18 215.317 22.99 214.437 22.61C213.557 22.21 212.797 21.68 212.157 21.02C211.537 20.36 211.057 19.58 210.717 18.68C210.377 17.78 210.207 16.82 210.207 15.8C210.207 14.74 210.367 13.75 210.687 12.83C211.007 11.91 211.477 11.11 212.097 10.43C212.717 9.75 213.457 9.22 214.317 8.84C215.197 8.44 216.197 8.24 217.317 8.24C218.337 8.24 219.287 8.44 220.167 8.84C221.047 9.24 221.747 9.88 222.267 10.76H222.327V8.6H225.747ZM218.067 11.48C217.427 11.48 216.847 11.59 216.327 11.81C215.807 12.01 215.357 12.3 214.977 12.68C214.617 13.04 214.327 13.49 214.107 14.03C213.907 14.55 213.807 15.13 213.807 15.77C213.807 16.35 213.907 16.89 214.107 17.39C214.327 17.89 214.627 18.33 215.007 18.71C215.387 19.09 215.837 19.39 216.357 19.61C216.877 19.83 217.437 19.94 218.037 19.94C218.697 19.94 219.287 19.83 219.807 19.61C220.347 19.39 220.797 19.1 221.157 18.74C221.537 18.36 221.827 17.91 222.027 17.39C222.227 16.87 222.327 16.31 222.327 15.71C222.327 14.45 221.947 13.43 221.187 12.65C220.427 11.87 219.387 11.48 218.067 11.48ZM229.823 8.6H233.243V10.91H233.303C233.643 10.19 234.163 9.57 234.863 9.05C235.563 8.51 236.513 8.24 237.713 8.24C238.673 8.24 239.483 8.4 240.143 8.72C240.823 9.04 241.373 9.46 241.793 9.98C242.213 10.5 242.513 11.1 242.693 11.78C242.873 12.46 242.963 13.17 242.963 13.91V23H239.363V15.71C239.363 15.31 239.343 14.87 239.303 14.39C239.263 13.89 239.153 13.43 238.973 13.01C238.813 12.57 238.553 12.21 238.193 11.93C237.833 11.63 237.343 11.48 236.723 11.48C236.123 11.48 235.613 11.58 235.193 11.78C234.793 11.98 234.453 12.25 234.173 12.59C233.913 12.93 233.723 13.32 233.603 13.76C233.483 14.2 233.423 14.66 233.423 15.14V23H229.823V8.6ZM249.93 17.06C250.05 18.14 250.47 18.98 251.19 19.58C251.91 20.18 252.78 20.48 253.8 20.48C254.7 20.48 255.45 20.3 256.05 19.94C256.67 19.56 257.21 19.09 257.67 18.53L260.25 20.48C259.41 21.52 258.47 22.26 257.43 22.7C256.39 23.14 255.3 23.36 254.16 23.36C253.08 23.36 252.06 23.18 251.1 22.82C250.14 22.46 249.31 21.95 248.61 21.29C247.91 20.63 247.35 19.84 246.93 18.92C246.53 17.98 246.33 16.94 246.33 15.8C246.33 14.66 246.53 13.63 246.93 12.71C247.35 11.77 247.91 10.97 248.61 10.31C249.31 9.65 250.14 9.14 251.1 8.78C252.06 8.42 253.08 8.24 254.16 8.24C255.16 8.24 256.07 8.42 256.89 8.78C257.73 9.12 258.44 9.62 259.02 10.28C259.62 10.94 260.08 11.76 260.4 12.74C260.74 13.7 260.91 14.81 260.91 16.07V17.06H249.93ZM257.31 14.36C257.29 13.3 256.96 12.47 256.32 11.87C255.68 11.25 254.79 10.94 253.65 10.94C252.57 10.94 251.71 11.25 251.07 11.87C250.45 12.49 250.07 13.32 249.93 14.36H257.31ZM264.276 8.6H267.876V10.88H267.936C268.336 10.04 268.906 9.39 269.646 8.93C270.386 8.47 271.236 8.24 272.196 8.24C272.416 8.24 272.626 8.26 272.826 8.3C273.046 8.34 273.266 8.39 273.486 8.45V11.93C273.186 11.85 272.886 11.79 272.586 11.75C272.306 11.69 272.026 11.66 271.746 11.66C270.906 11.66 270.226 11.82 269.706 12.14C269.206 12.44 268.816 12.79 268.536 13.19C268.276 13.59 268.096 13.99 267.996 14.39C267.916 14.79 267.876 15.09 267.876 15.29V23H264.276V8.6ZM274.383 18.86H278.043L275.493 26.78H272.283L274.383 18.86ZM298.136 1.76H301.406L310.556 23H306.236L304.256 18.14H295.046L293.126 23H288.896L298.136 1.76ZM302.936 14.9L299.666 6.26L296.336 14.9H302.936ZM322.427 12.92C322.007 12.48 321.567 12.13 321.107 11.87C320.647 11.61 320.177 11.48 319.697 11.48C319.037 11.48 318.447 11.6 317.927 11.84C317.407 12.08 316.957 12.4 316.577 12.8C316.217 13.2 315.937 13.66 315.737 14.18C315.557 14.7 315.467 15.24 315.467 15.8C315.467 16.36 315.557 16.9 315.737 17.42C315.937 17.94 316.217 18.4 316.577 18.8C316.957 19.2 317.407 19.52 317.927 19.76C318.447 20 319.037 20.12 319.697 20.12C320.257 20.12 320.777 20.01 321.257 19.79C321.737 19.55 322.147 19.21 322.487 18.77L324.887 21.35C324.527 21.71 324.107 22.02 323.627 22.28C323.167 22.54 322.697 22.75 322.217 22.91C321.737 23.07 321.277 23.18 320.837 23.24C320.397 23.32 320.017 23.36 319.697 23.36C318.617 23.36 317.597 23.18 316.637 22.82C315.677 22.46 314.847 21.95 314.147 21.29C313.447 20.63 312.887 19.84 312.467 18.92C312.067 17.98 311.867 16.94 311.867 15.8C311.867 14.66 312.067 13.63 312.467 12.71C312.887 11.77 313.447 10.97 314.147 10.31C314.847 9.65 315.677 9.14 316.637 8.78C317.597 8.42 318.617 8.24 319.697 8.24C320.617 8.24 321.537 8.42 322.457 8.78C323.397 9.12 324.217 9.67 324.917 10.43L322.427 12.92ZM325.38 11.66V8.6H328.35V4.43H331.95V8.6H335.91V11.66H331.95V17.96C331.95 18.68 332.08 19.25 332.34 19.67C332.62 20.09 333.16 20.3 333.96 20.3C334.28 20.3 334.63 20.27 335.01 20.21C335.39 20.13 335.69 20.01 335.91 19.85V22.88C335.53 23.06 335.06 23.18 334.5 23.24C333.96 23.32 333.48 23.36 333.06 23.36C332.1 23.36 331.31 23.25 330.69 23.03C330.09 22.83 329.61 22.52 329.25 22.1C328.91 21.66 328.67 21.12 328.53 20.48C328.41 19.84 328.35 19.1 328.35 18.26V11.66H325.38ZM356.597 21.02H356.507C355.987 21.84 355.327 22.44 354.527 22.82C353.727 23.18 352.847 23.36 351.887 23.36C351.227 23.36 350.577 23.27 349.937 23.09C349.317 22.91 348.757 22.64 348.257 22.28C347.777 21.92 347.387 21.47 347.087 20.93C346.787 20.39 346.637 19.76 346.637 19.04C346.637 18.26 346.777 17.6 347.057 17.06C347.337 16.5 347.707 16.04 348.167 15.68C348.647 15.3 349.197 15 349.817 14.78C350.437 14.56 351.077 14.4 351.737 14.3C352.417 14.18 353.097 14.11 353.777 14.09C354.457 14.05 355.097 14.03 355.697 14.03H356.597V13.64C356.597 12.74 356.287 12.07 355.667 11.63C355.047 11.17 354.257 10.94 353.297 10.94C352.537 10.94 351.827 11.08 351.167 11.36C350.507 11.62 349.937 11.98 349.457 12.44L347.567 10.55C348.367 9.73 349.297 9.14 350.357 8.78C351.437 8.42 352.547 8.24 353.687 8.24C354.707 8.24 355.567 8.36 356.267 8.6C356.967 8.82 357.547 9.11 358.007 9.47C358.467 9.83 358.817 10.25 359.057 10.73C359.317 11.19 359.497 11.66 359.597 12.14C359.717 12.62 359.787 13.09 359.807 13.55C359.827 13.99 359.837 14.38 359.837 14.72V23H356.597V21.02ZM356.387 16.55H355.637C355.137 16.55 354.577 16.57 353.957 16.61C353.337 16.65 352.747 16.75 352.187 16.91C351.647 17.05 351.187 17.27 350.807 17.57C350.427 17.85 350.237 18.25 350.237 18.77C350.237 19.11 350.307 19.4 350.447 19.64C350.607 19.86 350.807 20.05 351.047 20.21C351.287 20.37 351.557 20.49 351.857 20.57C352.157 20.63 352.457 20.66 352.757 20.66C353.997 20.66 354.907 20.37 355.487 19.79C356.087 19.19 356.387 18.38 356.387 17.36V16.55ZM371.39 12.59C370.69 11.61 369.75 11.12 368.57 11.12C368.09 11.12 367.62 11.24 367.16 11.48C366.7 11.72 366.47 12.11 366.47 12.65C366.47 13.09 366.66 13.41 367.04 13.61C367.42 13.81 367.9 13.98 368.48 14.12C369.06 14.26 369.68 14.41 370.34 14.57C371.02 14.71 371.65 14.94 372.23 15.26C372.81 15.56 373.29 15.98 373.67 16.52C374.05 17.06 374.24 17.8 374.24 18.74C374.24 19.6 374.05 20.33 373.67 20.93C373.31 21.51 372.83 21.98 372.23 22.34C371.65 22.7 370.99 22.96 370.25 23.12C369.51 23.28 368.77 23.36 368.03 23.36C366.91 23.36 365.88 23.2 364.94 22.88C364 22.56 363.16 21.98 362.42 21.14L364.82 18.89C365.28 19.41 365.77 19.84 366.29 20.18C366.83 20.5 367.48 20.66 368.24 20.66C368.5 20.66 368.77 20.63 369.05 20.57C369.33 20.51 369.59 20.41 369.83 20.27C370.07 20.13 370.26 19.96 370.4 19.76C370.56 19.54 370.64 19.29 370.64 19.01C370.64 18.51 370.45 18.14 370.07 17.9C369.69 17.66 369.21 17.47 368.63 17.33C368.05 17.17 367.42 17.03 366.74 16.91C366.08 16.77 365.46 16.56 364.88 16.28C364.3 15.98 363.82 15.57 363.44 15.05C363.06 14.53 362.87 13.81 362.87 12.89C362.87 12.09 363.03 11.4 363.35 10.82C363.69 10.22 364.13 9.73 364.67 9.35C365.21 8.97 365.83 8.69 366.53 8.51C367.23 8.33 367.94 8.24 368.66 8.24C369.62 8.24 370.57 8.41 371.51 8.75C372.45 9.07 373.21 9.63 373.79 10.43L371.39 12.59ZM394.917 21.02H394.827C394.307 21.84 393.647 22.44 392.847 22.82C392.047 23.18 391.167 23.36 390.207 23.36C389.547 23.36 388.897 23.27 388.257 23.09C387.637 22.91 387.077 22.64 386.577 22.28C386.097 21.92 385.707 21.47 385.407 20.93C385.107 20.39 384.957 19.76 384.957 19.04C384.957 18.26 385.097 17.6 385.377 17.06C385.657 16.5 386.027 16.04 386.487 15.68C386.967 15.3 387.517 15 388.137 14.78C388.757 14.56 389.397 14.4 390.057 14.3C390.737 14.18 391.417 14.11 392.097 14.09C392.777 14.05 393.417 14.03 394.017 14.03H394.917V13.64C394.917 12.74 394.607 12.07 393.987 11.63C393.367 11.17 392.577 10.94 391.617 10.94C390.857 10.94 390.147 11.08 389.487 11.36C388.827 11.62 388.257 11.98 387.777 12.44L385.887 10.55C386.687 9.73 387.617 9.14 388.677 8.78C389.757 8.42 390.867 8.24 392.007 8.24C393.027 8.24 393.887 8.36 394.587 8.6C395.287 8.82 395.867 9.11 396.327 9.47C396.787 9.83 397.137 10.25 397.377 10.73C397.637 11.19 397.817 11.66 397.917 12.14C398.037 12.62 398.107 13.09 398.127 13.55C398.147 13.99 398.157 14.38 398.157 14.72V23H394.917V21.02ZM394.707 16.55H393.957C393.457 16.55 392.897 16.57 392.277 16.61C391.657 16.65 391.067 16.75 390.507 16.91C389.967 17.05 389.507 17.27 389.127 17.57C388.747 17.85 388.557 18.25 388.557 18.77C388.557 19.11 388.627 19.4 388.767 19.64C388.927 19.86 389.127 20.05 389.367 20.21C389.607 20.37 389.877 20.49 390.177 20.57C390.477 20.63 390.777 20.66 391.077 20.66C392.317 20.66 393.227 20.37 393.807 19.79C394.407 19.19 394.707 18.38 394.707 17.36V16.55ZM402.03 8.6H405.45V10.91H405.51C405.85 10.19 406.37 9.57 407.07 9.05C407.77 8.51 408.72 8.24 409.92 8.24C410.88 8.24 411.69 8.4 412.35 8.72C413.03 9.04 413.58 9.46 414 9.98C414.42 10.5 414.72 11.1 414.9 11.78C415.08 12.46 415.17 13.17 415.17 13.91V23H411.57V15.71C411.57 15.31 411.55 14.87 411.51 14.39C411.47 13.89 411.36 13.43 411.18 13.01C411.02 12.57 410.76 12.21 410.4 11.93C410.04 11.63 409.55 11.48 408.93 11.48C408.33 11.48 407.82 11.58 407.4 11.78C407 11.98 406.66 12.25 406.38 12.59C406.12 12.93 405.93 13.32 405.81 13.76C405.69 14.2 405.63 14.66 405.63 15.14V23H402.03V8.6ZM428.464 1.76H442.534V5.18H432.244V10.4H441.994V13.82H432.244V19.58H443.074V23H428.464V1.76ZM446.474 8.6H449.894V10.91H449.954C450.294 10.19 450.814 9.57 451.514 9.05C452.214 8.51 453.164 8.24 454.364 8.24C455.324 8.24 456.134 8.4 456.794 8.72C457.474 9.04 458.024 9.46 458.444 9.98C458.864 10.5 459.164 11.1 459.344 11.78C459.524 12.46 459.614 13.17 459.614 13.91V23H456.014V15.71C456.014 15.31 455.994 14.87 455.954 14.39C455.914 13.89 455.804 13.43 455.624 13.01C455.464 12.57 455.204 12.21 454.844 11.93C454.484 11.63 453.994 11.48 453.374 11.48C452.774 11.48 452.264 11.58 451.844 11.78C451.444 11.98 451.104 12.25 450.824 12.59C450.564 12.93 450.374 13.32 450.254 13.76C450.134 14.2 450.074 14.66 450.074 15.14V23H446.474V8.6ZM462.02 11.66V8.6H464.99V4.43H468.59V8.6H472.55V11.66H468.59V17.96C468.59 18.68 468.72 19.25 468.98 19.67C469.26 20.09 469.8 20.3 470.6 20.3C470.92 20.3 471.27 20.27 471.65 20.21C472.03 20.13 472.33 20.01 472.55 19.85V22.88C472.17 23.06 471.7 23.18 471.14 23.24C470.6 23.32 470.12 23.36 469.7 23.36C468.74 23.36 467.95 23.25 467.33 23.03C466.73 22.83 466.25 22.52 465.89 22.1C465.55 21.66 465.31 21.12 465.17 20.48C465.05 19.84 464.99 19.1 464.99 18.26V11.66H462.02ZM475.36 8.6H478.96V10.88H479.02C479.42 10.04 479.99 9.39 480.73 8.93C481.47 8.47 482.32 8.24 483.28 8.24C483.5 8.24 483.71 8.26 483.91 8.3C484.13 8.34 484.35 8.39 484.57 8.45V11.93C484.27 11.85 483.97 11.79 483.67 11.75C483.39 11.69 483.11 11.66 482.83 11.66C481.99 11.66 481.31 11.82 480.79 12.14C480.29 12.44 479.9 12.79 479.62 13.19C479.36 13.59 479.18 13.99 479.08 14.39C479 14.79 478.96 15.09 478.96 15.29V23H475.36V8.6ZM489.373 17.06C489.493 18.14 489.913 18.98 490.633 19.58C491.353 20.18 492.223 20.48 493.243 20.48C494.143 20.48 494.893 20.3 495.493 19.94C496.113 19.56 496.653 19.09 497.113 18.53L499.693 20.48C498.853 21.52 497.913 22.26 496.873 22.7C495.833 23.14 494.743 23.36 493.603 23.36C492.523 23.36 491.503 23.18 490.543 22.82C489.583 22.46 488.753 21.95 488.053 21.29C487.353 20.63 486.793 19.84 486.373 18.92C485.973 17.98 485.773 16.94 485.773 15.8C485.773 14.66 485.973 13.63 486.373 12.71C486.793 11.77 487.353 10.97 488.053 10.31C488.753 9.65 489.583 9.14 490.543 8.78C491.503 8.42 492.523 8.24 493.603 8.24C494.603 8.24 495.513 8.42 496.333 8.78C497.173 9.12 497.883 9.62 498.463 10.28C499.063 10.94 499.523 11.76 499.843 12.74C500.183 13.7 500.353 14.81 500.353 16.07V17.06H489.373ZM496.753 14.36C496.733 13.3 496.403 12.47 495.763 11.87C495.123 11.25 494.233 10.94 493.093 10.94C492.013 10.94 491.153 11.25 490.513 11.87C489.893 12.49 489.513 13.32 489.373 14.36H496.753ZM503.72 8.6H507.14V10.76H507.2C507.72 9.88 508.42 9.24 509.3 8.84C510.18 8.44 511.13 8.24 512.15 8.24C513.25 8.24 514.24 8.44 515.12 8.84C516 9.22 516.75 9.75 517.37 10.43C517.99 11.11 518.46 11.91 518.78 12.83C519.1 13.75 519.26 14.74 519.26 15.8C519.26 16.86 519.09 17.85 518.75 18.77C518.41 19.69 517.93 20.49 517.31 21.17C516.71 21.85 515.98 22.39 515.12 22.79C514.26 23.17 513.32 23.36 512.3 23.36C511.62 23.36 511.02 23.29 510.5 23.15C509.98 23.01 509.52 22.83 509.12 22.61C508.72 22.39 508.38 22.16 508.1 21.92C507.82 21.66 507.59 21.41 507.41 21.17H507.32V29.84H503.72V8.6ZM515.66 15.8C515.66 15.24 515.56 14.7 515.36 14.18C515.18 13.66 514.9 13.2 514.52 12.8C514.16 12.4 513.72 12.08 513.2 11.84C512.68 11.6 512.09 11.48 511.43 11.48C510.77 11.48 510.18 11.6 509.66 11.84C509.14 12.08 508.69 12.4 508.31 12.8C507.95 13.2 507.67 13.66 507.47 14.18C507.29 14.7 507.2 15.24 507.2 15.8C507.2 16.36 507.29 16.9 507.47 17.42C507.67 17.94 507.95 18.4 508.31 18.8C508.69 19.2 509.14 19.52 509.66 19.76C510.18 20 510.77 20.12 511.43 20.12C512.09 20.12 512.68 20 513.2 19.76C513.72 19.52 514.16 19.2 514.52 18.8C514.9 18.4 515.18 17.94 515.36 17.42C515.56 16.9 515.66 16.36 515.66 15.8ZM522.616 8.6H526.216V10.88H526.276C526.676 10.04 527.246 9.39 527.986 8.93C528.726 8.47 529.576 8.24 530.536 8.24C530.756 8.24 530.966 8.26 531.166 8.3C531.386 8.34 531.606 8.39 531.826 8.45V11.93C531.526 11.85 531.226 11.79 530.926 11.75C530.646 11.69 530.366 11.66 530.086 11.66C529.246 11.66 528.566 11.82 528.046 12.14C527.546 12.44 527.156 12.79 526.876 13.19C526.616 13.59 526.436 13.99 526.336 14.39C526.256 14.79 526.216 15.09 526.216 15.29V23H522.616V8.6ZM536.629 17.06C536.749 18.14 537.169 18.98 537.889 19.58C538.609 20.18 539.479 20.48 540.499 20.48C541.399 20.48 542.149 20.3 542.749 19.94C543.369 19.56 543.909 19.09 544.369 18.53L546.949 20.48C546.109 21.52 545.169 22.26 544.129 22.7C543.089 23.14 541.999 23.36 540.859 23.36C539.779 23.36 538.759 23.18 537.799 22.82C536.839 22.46 536.009 21.95 535.309 21.29C534.609 20.63 534.049 19.84 533.629 18.92C533.229 17.98 533.029 16.94 533.029 15.8C533.029 14.66 533.229 13.63 533.629 12.71C534.049 11.77 534.609 10.97 535.309 10.31C536.009 9.65 536.839 9.14 537.799 8.78C538.759 8.42 539.779 8.24 540.859 8.24C541.859 8.24 542.769 8.42 543.589 8.78C544.429 9.12 545.139 9.62 545.719 10.28C546.319 10.94 546.779 11.76 547.099 12.74C547.439 13.7 547.609 14.81 547.609 16.07V17.06H536.629ZM544.009 14.36C543.989 13.3 543.659 12.47 543.019 11.87C542.379 11.25 541.489 10.94 540.349 10.94C539.269 10.94 538.409 11.25 537.769 11.87C537.149 12.49 536.769 13.32 536.629 14.36H544.009ZM550.976 8.6H554.396V10.91H554.456C554.796 10.19 555.316 9.57 556.016 9.05C556.716 8.51 557.666 8.24 558.866 8.24C559.826 8.24 560.636 8.4 561.296 8.72C561.976 9.04 562.526 9.46 562.946 9.98C563.366 10.5 563.666 11.1 563.846 11.78C564.026 12.46 564.116 13.17 564.116 13.91V23H560.516V15.71C560.516 15.31 560.496 14.87 560.456 14.39C560.416 13.89 560.306 13.43 560.126 13.01C559.966 12.57 559.706 12.21 559.346 11.93C558.986 11.63 558.496 11.48 557.876 11.48C557.276 11.48 556.766 11.58 556.346 11.78C555.946 11.98 555.606 12.25 555.326 12.59C555.066 12.93 554.876 13.32 554.756 13.76C554.636 14.2 554.576 14.66 554.576 15.14V23H550.976V8.6ZM571.082 17.06C571.202 18.14 571.622 18.98 572.342 19.58C573.062 20.18 573.932 20.48 574.952 20.48C575.852 20.48 576.602 20.3 577.202 19.94C577.822 19.56 578.362 19.09 578.822 18.53L581.402 20.48C580.562 21.52 579.622 22.26 578.582 22.7C577.542 23.14 576.452 23.36 575.312 23.36C574.232 23.36 573.212 23.18 572.252 22.82C571.292 22.46 570.462 21.95 569.762 21.29C569.062 20.63 568.502 19.84 568.082 18.92C567.682 17.98 567.482 16.94 567.482 15.8C567.482 14.66 567.682 13.63 568.082 12.71C568.502 11.77 569.062 10.97 569.762 10.31C570.462 9.65 571.292 9.14 572.252 8.78C573.212 8.42 574.232 8.24 575.312 8.24C576.312 8.24 577.222 8.42 578.042 8.78C578.882 9.12 579.592 9.62 580.172 10.28C580.772 10.94 581.232 11.76 581.552 12.74C581.892 13.7 582.062 14.81 582.062 16.07V17.06H571.082ZM578.462 14.36C578.442 13.3 578.112 12.47 577.472 11.87C576.832 11.25 575.942 10.94 574.802 10.94C573.722 10.94 572.862 11.25 572.222 11.87C571.602 12.49 571.222 13.32 571.082 14.36H578.462ZM598.569 23H595.149V20.69H595.089C594.749 21.41 594.229 22.04 593.529 22.58C592.829 23.1 591.879 23.36 590.679 23.36C589.719 23.36 588.899 23.21 588.219 22.91C587.559 22.59 587.019 22.17 586.599 21.65C586.179 21.11 585.879 20.5 585.699 19.82C585.519 19.14 585.429 18.43 585.429 17.69V8.6H589.029V15.89C589.029 16.29 589.049 16.74 589.089 17.24C589.129 17.72 589.229 18.18 589.389 18.62C589.569 19.04 589.829 19.4 590.169 19.7C590.529 19.98 591.029 20.12 591.669 20.12C592.269 20.12 592.769 20.02 593.169 19.82C593.589 19.62 593.929 19.35 594.189 19.01C594.469 18.67 594.669 18.28 594.789 17.84C594.909 17.4 594.969 16.94 594.969 16.46V8.6H598.569V23ZM602.655 8.6H606.255V10.88H606.315C606.715 10.04 607.285 9.39 608.025 8.93C608.765 8.47 609.615 8.24 610.575 8.24C610.795 8.24 611.005 8.26 611.205 8.3C611.425 8.34 611.645 8.39 611.865 8.45V11.93C611.565 11.85 611.265 11.79 610.965 11.75C610.685 11.69 610.405 11.66 610.125 11.66C609.285 11.66 608.605 11.82 608.085 12.14C607.585 12.44 607.195 12.79 606.915 13.19C606.655 13.59 606.475 13.99 606.375 14.39C606.295 14.79 606.255 15.09 606.255 15.29V23H602.655V8.6Z" fill="url(#paint0_radial_679_10526)"/>
<defs>
<radialGradient id="paint0_radial_679_10526" cx="0" cy="0" r="1" gradientUnits="userSpaceOnUse" gradientTransform="translate(450 13.4999) rotate(180) scale(527.184 1433.18)">
<stop stop-color="#9149B3"/>
<stop offset="0.989583" stop-color="#D91A1A" stop-opacity="0.7"/>
</radialGradient>
</defs>
</svg>
