<svg width="419" height="357" viewBox="0 0 419 357" fill="none" xmlns="http://www.w3.org/2000/svg">
<path d="M417.693 355.752L417.693 356.428L418.368 356.428L418.368 355.752L417.693 355.752ZM4.76641 0.63615L0.882289 7.39965L8.6817 7.38166L4.76641 0.63615ZM5.58591 355.752L4.91045 355.754L4.91199 356.428L5.58592 356.428L5.58591 355.752ZM417.017 296.934L417.017 355.752L418.368 355.752L418.368 296.934L417.017 296.934ZM417.693 355.077L5.5859 355.077L5.58592 356.428L417.693 356.428L417.693 355.077ZM6.26134 355.751L5.45587 6.71365L4.10498 6.71676L4.91045 355.754L6.26134 355.751Z" fill="#2E8CDF"/>
</svg>
